<?xml version="1.0" encoding="UTF-8"?>
<svg xmlns="http://www.w3.org/2000/svg" xmlns:xlink="http://www.w3.org/1999/xlink" width="386pt" height="125pt" viewBox="0 0 386 125" version="1.1">
<g id="surface1">
<path style="fill:none;stroke-width:1;stroke-linecap:round;stroke-linejoin:round;stroke:rgb(0%,0%,0%);stroke-opacity:1;stroke-miterlimit:10;" d="M 287.4 447.2 L 308.4 447.2 L 308.4 468.2 L 287.4 468.2 Z M 287.4 447.2 " transform="matrix(1.25,0,0,1.25,-357.5,-461.25)"/>
<path style=" stroke:none;fill-rule:nonzero;fill:rgb(0%,0%,0%);fill-opacity:1;" d="M 17.511719 114 L 17.511719 113.726562 C 17.335938 113.667969 17.257812 113.628906 17.179688 113.511719 L 15.5 110.933594 L 16.632812 109.527344 C 16.847656 109.273438 17.082031 109.136719 17.433594 109.078125 L 17.433594 108.804688 L 15.539062 108.804688 L 15.539062 109.078125 L 15.773438 109.097656 C 16.027344 109.136719 16.105469 109.175781 16.105469 109.351562 C 16.105469 109.527344 15.988281 109.683594 15.675781 110.074219 L 15.285156 110.582031 C 15.226562 110.523438 15.1875 110.464844 15.128906 110.40625 C 14.757812 109.917969 14.484375 109.449219 14.484375 109.292969 C 14.484375 109.15625 14.640625 109.097656 15.011719 109.078125 L 15.011719 108.804688 L 12.199219 108.804688 L 12.199219 109.078125 C 12.492188 109.136719 12.550781 109.175781 12.785156 109.527344 L 14.230469 111.734375 C 14.054688 111.949219 14.152344 111.832031 13.976562 112.046875 L 13.488281 112.691406 C 12.863281 113.53125 12.628906 113.707031 12.21875 113.726562 L 12.21875 114 L 14.113281 114 L 14.113281 113.726562 C 13.722656 113.707031 13.566406 113.628906 13.566406 113.453125 C 13.566406 113.277344 13.839844 112.828125 14.269531 112.300781 C 14.347656 112.222656 14.40625 112.144531 14.464844 112.085938 C 14.601562 112.320312 14.757812 112.554688 14.933594 112.789062 C 15.207031 113.179688 15.304688 113.375 15.304688 113.511719 C 15.304688 113.648438 15.148438 113.707031 14.796875 113.726562 L 14.796875 114 Z M 17.511719 114 "/>
<path style="fill-rule:nonzero;fill:rgb(40%,74.901961%,100%);fill-opacity:1;stroke-width:1;stroke-linecap:round;stroke-linejoin:round;stroke:rgb(0%,0%,0%);stroke-opacity:1;stroke-miterlimit:10;" d="M 328.225 408.4 L 349.225 408.4 L 349.225 429.4 L 328.225 429.4 Z M 328.225 408.4 " transform="matrix(1.25,0,0,1.25,-357.5,-461.25)"/>
<path style=" stroke:none;fill-rule:nonzero;fill:rgb(0%,0%,0%);fill-opacity:1;" d="M 66.945312 58.527344 L 64.894531 58.527344 L 64.894531 58.800781 C 65.5 58.839844 65.675781 58.957031 65.675781 59.289062 C 65.675781 59.445312 65.65625 59.601562 65.597656 59.777344 L 64.328125 63.625 L 63.117188 59.855469 C 63 59.464844 62.960938 59.328125 62.960938 59.210938 C 62.960938 58.957031 63.136719 58.839844 63.625 58.820312 L 63.78125 58.800781 L 63.78125 58.527344 L 60.265625 58.527344 L 60.265625 58.800781 C 60.734375 58.820312 60.96875 58.917969 61.066406 59.191406 L 61.476562 60.265625 L 60.148438 63.742188 L 58.78125 59.640625 C 58.722656 59.445312 58.703125 59.367188 58.703125 59.269531 C 58.703125 58.957031 58.839844 58.839844 59.425781 58.800781 L 59.425781 58.527344 L 56.125 58.527344 L 56.125 58.800781 C 56.59375 58.859375 56.710938 58.976562 56.90625 59.523438 L 59.289062 66.300781 L 59.601562 66.300781 L 61.691406 60.929688 L 63.625 66.300781 L 63.917969 66.300781 L 66.164062 59.523438 C 66.320312 59.074219 66.574219 58.839844 66.945312 58.800781 Z M 66.945312 58.527344 "/>
<path style=" stroke:none;fill-rule:nonzero;fill:rgb(0%,0%,0%);fill-opacity:1;" d="M 69.445312 62.335938 C 68.390625 61.457031 68.15625 60.617188 68.15625 59.210938 C 68.15625 57.765625 68.390625 57.0625 69.445312 56.183594 L 69.367188 56.046875 C 68.175781 56.769531 67.511719 57.84375 67.511719 59.230469 C 67.511719 60.519531 68.15625 61.769531 69.347656 62.453125 Z M 69.445312 62.335938 "/>
<path style=" stroke:none;fill-rule:nonzero;fill:rgb(0%,0%,0%);fill-opacity:1;" d="M 72.605469 61.125 L 72.605469 61.007812 C 72.039062 61.007812 71.902344 60.871094 71.902344 60.558594 L 71.902344 56.085938 L 71.824219 56.046875 L 70.496094 56.730469 L 70.496094 56.847656 L 70.691406 56.769531 C 70.828125 56.710938 70.945312 56.671875 71.023438 56.671875 C 71.179688 56.671875 71.257812 56.789062 71.257812 57.042969 L 71.257812 60.421875 C 71.257812 60.832031 71.101562 60.988281 70.535156 61.007812 L 70.535156 61.125 Z M 72.605469 61.125 "/>
<path style=" stroke:none;fill-rule:nonzero;fill:rgb(0%,0%,0%);fill-opacity:1;" d="M 73.621094 56.183594 C 74.714844 57.023438 74.890625 57.882812 74.890625 59.289062 C 74.890625 60.753906 74.695312 61.457031 73.621094 62.335938 L 73.699219 62.453125 C 74.890625 61.730469 75.535156 60.65625 75.535156 59.269531 C 75.535156 58 74.851562 56.75 73.71875 56.046875 Z M 73.621094 56.183594 "/>
<path style=" stroke:none;fill-rule:nonzero;fill:rgb(69.803922%,85.098039%,100%);fill-opacity:1;" d="M 75.1875 101.59375 C 80.3125 106.71875 80.3125 115.03125 75.1875 120.15625 C 70.0625 125.28125 61.753906 125.28125 56.625 120.15625 C 51.5 115.03125 51.5 106.71875 56.625 101.59375 C 61.753906 96.46875 70.0625 96.46875 75.1875 101.59375 "/>
<path style="fill:none;stroke-width:1;stroke-linecap:round;stroke-linejoin:round;stroke:rgb(0%,0%,0%);stroke-opacity:1;stroke-miterlimit:10;" d="M 346.15 450.278125 C 350.25 454.375 350.25 461.025 346.15 465.125 C 342.05 469.225 335.403125 469.225 331.3 465.125 C 327.2 461.025 327.2 454.375 331.3 450.278125 C 335.403125 446.175 342.05 446.175 346.15 450.278125 " transform="matrix(1.25,0,0,1.25,-357.5,-461.25)"/>
<path style=" stroke:none;fill-rule:nonzero;fill:rgb(0%,0%,0%);fill-opacity:1;" d="M 63.664062 112.90625 L 62.863281 112.90625 L 65.480469 109.859375 L 62.863281 106.851562 L 63.722656 106.851562 L 65.910156 109.136719 L 68.175781 106.851562 L 68.957031 106.851562 L 66.300781 109.859375 L 68.957031 112.90625 L 68.097656 112.90625 L 65.910156 110.464844 Z M 63.664062 112.90625 "/>
<path style="fill:none;stroke-width:1;stroke-linecap:round;stroke-linejoin:round;stroke:rgb(0%,0%,0%);stroke-opacity:1;stroke-miterlimit:10;" d="M 369.05 447.2 L 390.05 447.2 L 390.05 468.2 L 369.05 468.2 Z M 369.05 447.2 " transform="matrix(1.25,0,0,1.25,-357.5,-461.25)"/>
<path style=" stroke:none;fill-rule:nonzero;fill:rgb(0%,0%,0%);fill-opacity:1;" d="M 119.167969 112.203125 L 118.855469 112.203125 C 118.757812 112.554688 118.660156 112.730469 118.503906 112.984375 C 118.132812 113.492188 117.761719 113.648438 116.84375 113.648438 L 116.53125 113.648438 L 119.128906 109.097656 L 119.128906 108.804688 L 114.949219 108.804688 L 114.871094 110.40625 L 115.164062 110.40625 C 115.4375 109.351562 115.710938 109.175781 117.3125 109.175781 L 114.675781 113.726562 L 114.675781 114 L 118.992188 114 Z M 119.167969 112.203125 "/>
<path style=" stroke:none;fill-rule:nonzero;fill:rgb(69.803922%,85.098039%,100%);fill-opacity:1;" d="M 177.25 101.59375 C 182.375 106.71875 182.375 115.03125 177.25 120.15625 C 172.125 125.28125 163.8125 125.28125 158.6875 120.15625 C 153.5625 115.03125 153.5625 106.71875 158.6875 101.59375 C 163.8125 96.46875 172.125 96.46875 177.25 101.59375 "/>
<path style="fill:none;stroke-width:1;stroke-linecap:round;stroke-linejoin:round;stroke:rgb(0%,0%,0%);stroke-opacity:1;stroke-miterlimit:10;" d="M 427.8 450.278125 C 431.9 454.375 431.9 461.025 427.8 465.125 C 423.7 469.225 417.05 469.225 412.95 465.125 C 408.85 461.025 408.85 454.375 412.95 450.278125 C 417.05 446.175 423.7 446.175 427.8 450.278125 " transform="matrix(1.25,0,0,1.25,-357.5,-461.25)"/>
<path style=" stroke:none;fill-rule:nonzero;fill:rgb(0%,0%,0%);fill-opacity:1;" d="M 169.851562 106.324219 L 168.992188 106.324219 L 168.230469 109.039062 L 168.054688 109.039062 C 166.003906 109.039062 164.753906 111.421875 164.753906 112.554688 C 164.753906 113.277344 165.027344 113.804688 165.613281 114 C 165.886719 114.097656 166.335938 114.117188 166.824219 114.117188 L 166.199219 116.304688 L 167.078125 116.304688 L 167.683594 114.117188 C 169.910156 114.117188 171.140625 111.890625 171.140625 110.582031 C 171.140625 109.800781 170.789062 109.390625 170.242188 109.175781 C 169.929688 109.058594 169.617188 109.039062 169.089844 109.039062 Z M 169.03125 109.273438 C 169.265625 109.273438 169.578125 109.292969 169.675781 109.351562 C 169.96875 109.527344 170.183594 109.820312 170.183594 110.328125 C 170.183594 111.246094 169.460938 113.238281 168.542969 113.707031 C 168.230469 113.863281 168.035156 113.882812 167.761719 113.882812 Z M 166.882812 113.882812 C 166.628906 113.882812 166.414062 113.863281 166.238281 113.804688 C 165.886719 113.667969 165.691406 113.335938 165.691406 112.867188 C 165.691406 111.285156 166.863281 109.273438 168.171875 109.273438 Z M 166.882812 113.882812 "/>
<path style="fill:none;stroke-width:1;stroke-linecap:round;stroke-linejoin:round;stroke:rgb(0%,0%,0%);stroke-opacity:1;stroke-miterlimit:10;" d="M 450.7 447.2 L 471.7 447.2 L 471.7 468.2 L 450.7 468.2 Z M 450.7 447.2 " transform="matrix(1.25,0,0,1.25,-357.5,-461.25)"/>
<path style=" stroke:none;fill-rule:nonzero;fill:rgb(0%,0%,0%);fill-opacity:1;" d="M 221.886719 114 L 221.886719 113.726562 C 221.476562 113.726562 221.320312 113.53125 221.320312 113.023438 L 221.320312 110.210938 C 221.320312 109.3125 220.792969 108.6875 219.855469 108.6875 C 219.269531 108.6875 218.761719 108.882812 218.214844 109.546875 L 218.214844 106.402344 L 216.046875 106.402344 L 216.046875 106.65625 C 216.554688 106.773438 216.652344 106.8125 216.652344 107.359375 L 216.652344 113.003906 C 216.652344 113.628906 216.554688 113.628906 216.046875 113.726562 L 216.046875 114 L 218.742188 114 L 218.742188 113.726562 C 218.332031 113.667969 218.214844 113.511719 218.214844 113.042969 L 218.214844 110.09375 C 218.214844 110.035156 218.292969 109.917969 218.410156 109.820312 C 218.644531 109.566406 218.917969 109.429688 219.191406 109.429688 C 219.621094 109.429688 219.757812 109.722656 219.757812 110.523438 L 219.757812 113.042969 C 219.757812 113.511719 219.621094 113.6875 219.25 113.726562 L 219.25 114 Z M 221.886719 114 "/>
<path style="fill:none;stroke-width:1;stroke-linecap:round;stroke-linejoin:round;stroke:rgb(0%,0%,0%);stroke-opacity:1;stroke-miterlimit:10;" d="M 532.35 447.2 L 553.35 447.2 L 553.35 468.2 L 532.35 468.2 Z M 532.35 447.2 " transform="matrix(1.25,0,0,1.25,-357.5,-461.25)"/>
<path style=" stroke:none;fill-rule:nonzero;fill:rgb(0%,0%,0%);fill-opacity:1;" d="M 323.601562 111.421875 C 323.601562 109.820312 322.527344 108.6875 321.101562 108.6875 C 319.617188 108.6875 318.523438 109.800781 318.523438 111.441406 C 318.523438 113.023438 319.65625 114.15625 321.0625 114.15625 C 322.507812 114.15625 323.601562 113.003906 323.601562 111.421875 Z M 321.960938 111.539062 C 321.960938 113.21875 321.726562 113.804688 321.082031 113.804688 C 320.417969 113.804688 320.183594 113.179688 320.183594 111.539062 C 320.183594 109.625 320.378906 109.019531 321.082031 109.019531 C 321.746094 109.019531 321.960938 109.625 321.960938 111.539062 Z M 321.960938 111.539062 "/>
<path style="fill-rule:nonzero;fill:rgb(40%,74.901961%,100%);fill-opacity:1;stroke-width:1;stroke-linecap:round;stroke-linejoin:round;stroke:rgb(0%,0%,0%);stroke-opacity:1;stroke-miterlimit:10;" d="M 491.2 408.4 L 512.2 408.4 L 512.2 429.4 L 491.2 429.4 Z M 491.2 408.4 " transform="matrix(1.25,0,0,1.25,-357.5,-461.25)"/>
<path style=" stroke:none;fill-rule:nonzero;fill:rgb(0%,0%,0%);fill-opacity:1;" d="M 270.660156 58.527344 L 268.609375 58.527344 L 268.609375 58.800781 C 269.214844 58.839844 269.390625 58.957031 269.390625 59.289062 C 269.390625 59.445312 269.371094 59.601562 269.3125 59.777344 L 268.042969 63.625 L 266.832031 59.855469 C 266.714844 59.464844 266.675781 59.328125 266.675781 59.210938 C 266.675781 58.957031 266.851562 58.839844 267.339844 58.820312 L 267.496094 58.800781 L 267.496094 58.527344 L 263.980469 58.527344 L 263.980469 58.800781 C 264.449219 58.820312 264.683594 58.917969 264.78125 59.191406 L 265.191406 60.265625 L 263.863281 63.742188 L 262.496094 59.640625 C 262.4375 59.445312 262.417969 59.367188 262.417969 59.269531 C 262.417969 58.957031 262.554688 58.839844 263.140625 58.800781 L 263.140625 58.527344 L 259.839844 58.527344 L 259.839844 58.800781 C 260.308594 58.859375 260.425781 58.976562 260.621094 59.523438 L 263.003906 66.300781 L 263.316406 66.300781 L 265.40625 60.929688 L 267.339844 66.300781 L 267.632812 66.300781 L 269.878906 59.523438 C 270.035156 59.074219 270.289062 58.839844 270.660156 58.800781 Z M 270.660156 58.527344 "/>
<path style=" stroke:none;fill-rule:nonzero;fill:rgb(0%,0%,0%);fill-opacity:1;" d="M 273.160156 62.335938 C 272.105469 61.457031 271.871094 60.617188 271.871094 59.210938 C 271.871094 57.765625 272.105469 57.0625 273.160156 56.183594 L 273.082031 56.046875 C 271.890625 56.769531 271.226562 57.84375 271.226562 59.230469 C 271.226562 60.519531 271.871094 61.769531 273.0625 62.453125 Z M 273.160156 62.335938 "/>
<path style=" stroke:none;fill-rule:nonzero;fill:rgb(0%,0%,0%);fill-opacity:1;" d="M 276.929688 60.089844 L 276.832031 60.050781 C 276.578125 60.480469 276.421875 60.558594 276.109375 60.558594 L 274.351562 60.558594 L 275.582031 59.230469 C 276.246094 58.527344 276.539062 57.960938 276.539062 57.375 C 276.539062 56.632812 276.011719 56.046875 275.152344 56.046875 C 274.234375 56.046875 273.765625 56.671875 273.609375 57.550781 L 273.765625 57.589844 C 274.058594 56.847656 274.3125 56.613281 274.859375 56.613281 C 275.503906 56.613281 275.894531 56.984375 275.894531 57.667969 C 275.894531 58.3125 275.640625 58.878906 274.917969 59.621094 L 273.589844 61.027344 L 273.589844 61.125 L 276.519531 61.125 Z M 276.929688 60.089844 "/>
<path style=" stroke:none;fill-rule:nonzero;fill:rgb(0%,0%,0%);fill-opacity:1;" d="M 277.339844 56.183594 C 278.433594 57.023438 278.609375 57.882812 278.609375 59.289062 C 278.609375 60.753906 278.414062 61.457031 277.339844 62.335938 L 277.417969 62.453125 C 278.609375 61.730469 279.253906 60.65625 279.253906 59.269531 C 279.253906 58 278.570312 56.75 277.4375 56.046875 Z M 277.339844 56.183594 "/>
<path style=" stroke:none;fill-rule:nonzero;fill:rgb(69.803922%,85.098039%,100%);fill-opacity:1;" d="M 279.3125 101.59375 C 284.4375 106.71875 284.4375 115.03125 279.3125 120.15625 C 274.183594 125.28125 265.875 125.28125 260.75 120.15625 C 255.625 115.03125 255.625 106.71875 260.75 101.59375 C 265.875 96.46875 274.183594 96.46875 279.3125 101.59375 "/>
<path style="fill:none;stroke-width:1;stroke-linecap:round;stroke-linejoin:round;stroke:rgb(0%,0%,0%);stroke-opacity:1;stroke-miterlimit:10;" d="M 509.45 450.278125 C 513.55 454.375 513.55 461.025 509.45 465.125 C 505.346875 469.225 498.7 469.225 494.6 465.125 C 490.5 461.025 490.5 454.375 494.6 450.278125 C 498.7 446.175 505.346875 446.175 509.45 450.278125 " transform="matrix(1.25,0,0,1.25,-357.5,-461.25)"/>
<path style=" stroke:none;fill-rule:nonzero;fill:rgb(0%,0%,0%);fill-opacity:1;" d="M 267.789062 112.90625 L 266.988281 112.90625 L 269.605469 109.859375 L 266.988281 106.851562 L 267.847656 106.851562 L 270.035156 109.136719 L 272.300781 106.851562 L 273.082031 106.851562 L 270.425781 109.859375 L 273.082031 112.90625 L 272.222656 112.90625 L 270.035156 110.464844 Z M 267.789062 112.90625 "/>
<path style="fill:none;stroke-width:1;stroke-linecap:round;stroke-linejoin:round;stroke:rgb(0%,0%,0%);stroke-opacity:1;stroke-miterlimit:10;" d="M 573.175 408.4 L 594.175 408.4 L 594.175 429.4 L 573.175 429.4 Z M 573.175 408.4 " transform="matrix(1.25,0,0,1.25,-357.5,-461.25)"/>
<path style=" stroke:none;fill-rule:nonzero;fill:rgb(0%,0%,0%);fill-opacity:1;" d="M 372.332031 63.410156 C 372.136719 62.414062 371.550781 60.539062 371.375 60.539062 L 371.335938 60.539062 C 370.730469 60.636719 370.359375 60.695312 370.125 60.734375 C 370.007812 60.773438 369.890625 60.792969 369.773438 60.8125 L 369.773438 61.007812 C 369.890625 60.96875 369.988281 60.949219 370.105469 60.949219 C 370.574219 60.949219 370.769531 61.125 370.984375 61.671875 C 371.277344 62.433594 371.902344 64.953125 371.902344 65.402344 C 371.902344 65.539062 371.863281 65.675781 371.785156 65.8125 C 371.707031 65.949219 371.199219 66.613281 370.984375 66.828125 C 370.730469 67.101562 370.59375 67.199219 370.457031 67.199219 C 370.164062 67.199219 370.164062 66.886719 369.773438 66.886719 C 369.519531 66.886719 369.324219 67.082031 369.324219 67.335938 C 369.324219 67.628906 369.558594 67.824219 369.910156 67.824219 C 370.535156 67.824219 371.746094 66.515625 372.917969 64.582031 C 373.855469 63.039062 374.382812 61.789062 374.382812 61.164062 C 374.382812 60.8125 374.148438 60.539062 373.796875 60.539062 C 373.542969 60.539062 373.347656 60.714844 373.347656 60.949219 C 373.347656 61.144531 373.425781 61.242188 373.640625 61.398438 C 373.855469 61.535156 373.933594 61.59375 373.933594 61.75 C 373.933594 62.257812 373.523438 63.058594 372.566406 64.640625 Z M 372.332031 63.410156 "/>
<path style=" stroke:none;fill-rule:nonzero;fill:rgb(69.803922%,85.098039%,100%);fill-opacity:1;" d="M 381.371094 101.59375 C 386.5 106.71875 386.5 115.03125 381.371094 120.15625 C 376.25 125.28125 367.9375 125.28125 362.8125 120.15625 C 357.6875 115.03125 357.6875 106.71875 362.8125 101.59375 C 367.9375 96.46875 376.25 96.46875 381.371094 101.59375 "/>
<path style="fill:none;stroke-width:1;stroke-linecap:round;stroke-linejoin:round;stroke:rgb(0%,0%,0%);stroke-opacity:1;stroke-miterlimit:10;" d="M 591.096875 450.278125 C 595.2 454.375 595.2 461.025 591.096875 465.125 C 587 469.225 580.35 469.225 576.25 465.125 C 572.15 461.025 572.15 454.375 576.25 450.278125 C 580.35 446.175 587 446.175 591.096875 450.278125 " transform="matrix(1.25,0,0,1.25,-357.5,-461.25)"/>
<path style=" stroke:none;fill-rule:nonzero;fill:rgb(0%,0%,0%);fill-opacity:1;" d="M 373.675781 106.363281 L 373.597656 106.324219 C 372.933594 106.460938 372.523438 106.539062 371.859375 106.617188 L 371.859375 106.792969 L 372.054688 106.792969 C 372.425781 106.792969 372.621094 106.910156 372.621094 107.046875 C 372.621094 107.085938 372.621094 107.144531 372.582031 107.261719 L 371.039062 113.160156 C 371 113.277344 371 113.394531 371 113.492188 C 371 113.902344 371.175781 114.117188 371.546875 114.117188 C 372.152344 114.117188 372.5625 113.785156 373.246094 112.710938 L 373.089844 112.613281 L 372.796875 113.003906 C 372.484375 113.453125 372.210938 113.648438 372.054688 113.648438 C 371.9375 113.648438 371.859375 113.570312 371.859375 113.433594 C 371.859375 113.355469 371.898438 113.160156 371.957031 112.945312 Z M 373.675781 106.363281 "/>
<path style="fill:none;stroke-width:1;stroke-linecap:round;stroke-linejoin:round;stroke:rgb(0%,0%,0%);stroke-opacity:1;stroke-miterlimit:10;" d="M 532.35 408.4 L 553.35 408.4 L 553.35 429.4 L 532.35 429.4 Z M 532.35 408.4 " transform="matrix(1.25,0,0,1.25,-357.5,-461.25)"/>
<path style=" stroke:none;fill-rule:nonzero;fill:rgb(0%,0%,0%);fill-opacity:1;" d="M 324.222656 63.46875 L 323.988281 63.410156 C 323.675781 64.054688 323.441406 64.425781 323.070312 64.660156 C 322.523438 65.03125 322.171875 65.089844 321.058594 65.089844 C 320.121094 65.089844 319.867188 64.992188 319.867188 64.640625 C 319.867188 64.484375 319.90625 64.289062 319.984375 64.035156 L 321.332031 59.191406 C 321.507812 58.566406 321.800781 58.371094 322.464844 58.332031 L 322.464844 58.15625 L 319.398438 58.15625 L 319.398438 58.332031 C 320.101562 58.371094 320.257812 58.488281 320.257812 58.820312 C 320.257812 58.976562 320.238281 59.210938 320.140625 59.523438 L 318.773438 64.445312 C 318.558594 65.148438 318.480469 65.246094 317.835938 65.324219 L 317.835938 65.5 L 323.578125 65.5 Z M 324.222656 63.46875 "/>
<path style="fill:none;stroke-width:1;stroke-linecap:round;stroke-linejoin:round;stroke:rgb(0%,0%,0%);stroke-opacity:1;stroke-miterlimit:10;" d="M 308.4 457.7 L 322.325 457.7 " transform="matrix(1.25,0,0,1.25,-357.5,-461.25)"/>
<path style="fill:none;stroke-width:1;stroke-linecap:butt;stroke-linejoin:miter;stroke:rgb(0%,0%,0%);stroke-opacity:1;stroke-miterlimit:10;" d="M 326.325 457.7 L 322.325 457.7 M 322.325 456.2 L 326.325 457.7 L 322.325 459.2 " transform="matrix(1.25,0,0,1.25,-357.5,-461.25)"/>
<path style="fill:none;stroke-width:1;stroke-linecap:round;stroke-linejoin:round;stroke:rgb(0%,0%,0%);stroke-opacity:1;stroke-miterlimit:10;" d="M 338.725 429.4 L 338.725 441.3 " transform="matrix(1.25,0,0,1.25,-357.5,-461.25)"/>
<path style="fill:none;stroke-width:1;stroke-linecap:butt;stroke-linejoin:miter;stroke:rgb(0%,0%,0%);stroke-opacity:1;stroke-miterlimit:10;" d="M 338.725 445.3 L 338.725 441.3 M 340.225 441.3 L 338.725 445.3 L 337.225 441.3 " transform="matrix(1.25,0,0,1.25,-357.5,-461.25)"/>
<path style="fill:none;stroke-width:1;stroke-linecap:round;stroke-linejoin:round;stroke:rgb(0%,0%,0%);stroke-opacity:1;stroke-miterlimit:10;" d="M 349.225 457.7 L 363.15 457.7 " transform="matrix(1.25,0,0,1.25,-357.5,-461.25)"/>
<path style="fill:none;stroke-width:1;stroke-linecap:butt;stroke-linejoin:miter;stroke:rgb(0%,0%,0%);stroke-opacity:1;stroke-miterlimit:10;" d="M 367.15 457.7 L 363.15 457.7 M 363.15 456.2 L 367.15 457.7 L 363.15 459.2 " transform="matrix(1.25,0,0,1.25,-357.5,-461.25)"/>
<path style="fill:none;stroke-width:1;stroke-linecap:round;stroke-linejoin:round;stroke:rgb(0%,0%,0%);stroke-opacity:1;stroke-miterlimit:10;" d="M 390.05 457.7 L 403.975 457.7 " transform="matrix(1.25,0,0,1.25,-357.5,-461.25)"/>
<path style="fill:none;stroke-width:1;stroke-linecap:butt;stroke-linejoin:miter;stroke:rgb(0%,0%,0%);stroke-opacity:1;stroke-miterlimit:10;" d="M 407.975 457.7 L 403.975 457.7 M 403.975 456.2 L 407.975 457.7 L 403.975 459.2 " transform="matrix(1.25,0,0,1.25,-357.5,-461.25)"/>
<path style="fill:none;stroke-width:1;stroke-linecap:round;stroke-linejoin:round;stroke:rgb(0%,0%,0%);stroke-opacity:1;stroke-miterlimit:10;" d="M 430.875 457.7 L 444.8 457.7 " transform="matrix(1.25,0,0,1.25,-357.5,-461.25)"/>
<path style="fill:none;stroke-width:1;stroke-linecap:butt;stroke-linejoin:miter;stroke:rgb(0%,0%,0%);stroke-opacity:1;stroke-miterlimit:10;" d="M 448.8 457.7 L 444.8 457.7 M 444.8 456.2 L 448.8 457.7 L 444.8 459.2 " transform="matrix(1.25,0,0,1.25,-357.5,-461.25)"/>
<path style="fill:none;stroke-width:1;stroke-linecap:round;stroke-linejoin:round;stroke:rgb(0%,0%,0%);stroke-opacity:1;stroke-miterlimit:10;" d="M 501.784375 429.4 L 501.8875 441.3 " transform="matrix(1.25,0,0,1.25,-357.5,-461.25)"/>
<path style="fill:none;stroke-width:1;stroke-linecap:butt;stroke-linejoin:miter;stroke:rgb(0%,0%,0%);stroke-opacity:1;stroke-miterlimit:10;" d="M 501.921875 445.3 L 501.8875 441.3 M 503.3875 441.2875 L 501.921875 445.3 L 500.3875 441.3125 " transform="matrix(1.25,0,0,1.25,-357.5,-461.25)"/>
<path style="fill:none;stroke-width:1;stroke-linecap:round;stroke-linejoin:round;stroke:rgb(0%,0%,0%);stroke-opacity:1;stroke-miterlimit:10;" d="M 471.7 457.7 L 485.625 457.7 " transform="matrix(1.25,0,0,1.25,-357.5,-461.25)"/>
<path style="fill:none;stroke-width:1;stroke-linecap:butt;stroke-linejoin:miter;stroke:rgb(0%,0%,0%);stroke-opacity:1;stroke-miterlimit:10;" d="M 489.625 457.7 L 485.625 457.7 M 485.625 456.2 L 489.625 457.7 L 485.625 459.2 " transform="matrix(1.25,0,0,1.25,-357.5,-461.25)"/>
<path style="fill:none;stroke-width:1;stroke-linecap:round;stroke-linejoin:round;stroke:rgb(0%,0%,0%);stroke-opacity:1;stroke-miterlimit:10;" d="M 512.525 457.7 L 526.45 457.7 " transform="matrix(1.25,0,0,1.25,-357.5,-461.25)"/>
<path style="fill:none;stroke-width:1;stroke-linecap:butt;stroke-linejoin:miter;stroke:rgb(0%,0%,0%);stroke-opacity:1;stroke-miterlimit:10;" d="M 530.45 457.7 L 526.45 457.7 M 526.45 456.2 L 530.45 457.7 L 526.45 459.2 " transform="matrix(1.25,0,0,1.25,-357.5,-461.25)"/>
<path style="fill:none;stroke-width:1;stroke-linecap:round;stroke-linejoin:round;stroke:rgb(0%,0%,0%);stroke-opacity:1;stroke-miterlimit:10;" d="M 553.35 457.7 L 567.275 457.7 " transform="matrix(1.25,0,0,1.25,-357.5,-461.25)"/>
<path style="fill:none;stroke-width:1;stroke-linecap:butt;stroke-linejoin:miter;stroke:rgb(0%,0%,0%);stroke-opacity:1;stroke-miterlimit:10;" d="M 571.275 457.7 L 567.275 457.7 M 567.275 456.2 L 571.275 457.7 L 567.275 459.2 " transform="matrix(1.25,0,0,1.25,-357.5,-461.25)"/>
<path style="fill:none;stroke-width:1;stroke-linecap:round;stroke-linejoin:round;stroke:rgb(0%,0%,0%);stroke-opacity:1;stroke-miterlimit:10;" d="M 583.675 429.4 L 583.675 441.3 " transform="matrix(1.25,0,0,1.25,-357.5,-461.25)"/>
<path style="fill:none;stroke-width:1;stroke-linecap:butt;stroke-linejoin:miter;stroke:rgb(0%,0%,0%);stroke-opacity:1;stroke-miterlimit:10;" d="M 583.675 445.3 L 583.675 441.3 M 585.175 441.3 L 583.675 445.3 L 582.175 441.3 " transform="matrix(1.25,0,0,1.25,-357.5,-461.25)"/>
<path style="fill:none;stroke-width:1;stroke-linecap:round;stroke-linejoin:round;stroke:rgb(0%,0%,0%);stroke-opacity:1;stroke-miterlimit:10;" d="M 576.0625 450.465625 L 557.625 432.94375 " transform="matrix(1.25,0,0,1.25,-357.5,-461.25)"/>
<path style="fill:none;stroke-width:1;stroke-linecap:butt;stroke-linejoin:miter;stroke:rgb(0%,0%,0%);stroke-opacity:1;stroke-miterlimit:10;" d="M 554.725 430.1875 L 557.625 432.94375 M 556.59375 434.03125 L 554.725 430.1875 L 558.659375 431.85625 " transform="matrix(1.25,0,0,1.25,-357.5,-461.25)"/>
<path style="fill-rule:nonzero;fill:rgb(69.803922%,85.098039%,100%);fill-opacity:1;stroke-width:1;stroke-linecap:round;stroke-linejoin:round;stroke:rgb(0%,0%,0%);stroke-opacity:1;stroke-miterlimit:10;" d="M 427.8 411.475 C 431.903125 415.575 431.903125 422.221875 427.8 426.325 C 423.7 430.425 417.05 430.425 412.95 426.325 C 408.85 422.221875 408.85 415.575 412.95 411.475 C 417.05 407.375 423.7 407.375 427.8 411.475 " transform="matrix(1.25,0,0,1.25,-357.5,-461.25)"/>
<path style=" stroke:none;fill-rule:nonzero;fill:rgb(0%,0%,0%);fill-opacity:1;" d="M 163.695312 59.875 C 164.007812 60.089844 164.359375 60.1875 164.691406 60.207031 C 164.535156 60.441406 164.378906 60.695312 164.242188 60.949219 C 163.714844 61.867188 163.382812 62.785156 163.382812 63.390625 C 163.382812 64.054688 163.832031 64.367188 164.359375 64.367188 C 165.0625 64.367188 165.726562 63.742188 166.917969 62.355469 L 166.664062 62.160156 C 165.589844 63.410156 164.964844 64.035156 164.4375 64.035156 C 164.125 64.035156 164.027344 63.820312 164.027344 63.546875 C 164.027344 62.804688 165.042969 61.144531 165.628906 60.207031 C 167.621094 59.914062 169.261719 58.449219 169.261719 57.277344 C 169.261719 56.75 169.007812 56.515625 168.539062 56.515625 C 167.621094 56.515625 166.097656 58.117188 164.925781 59.855469 C 164.574219 59.855469 164.222656 59.835938 163.851562 59.582031 Z M 165.84375 59.796875 C 166.429688 58.878906 167.054688 57.980469 167.601562 57.414062 C 167.894531 57.121094 168.207031 56.886719 168.519531 56.886719 C 168.792969 56.886719 168.929688 57.023438 168.929688 57.238281 C 168.929688 58.3125 167.621094 59.40625 165.863281 59.796875 Z M 165.84375 59.796875 "/>
<path style=" stroke:none;fill-rule:nonzero;fill:rgb(0%,0%,0%);fill-opacity:1;" d="M 170.113281 64.191406 C 170.367188 63.703125 170.757812 63.46875 171.207031 63.46875 C 171.792969 63.46875 172.105469 63.859375 172.105469 64.386719 C 172.105469 64.542969 172.066406 64.699219 172.027344 64.796875 C 171.851562 65.1875 171.519531 65.675781 171.011719 66.183594 L 169.449219 67.863281 L 169.449219 68 L 172.105469 68 L 172.476562 67.003906 L 172.339844 66.945312 C 172.164062 67.316406 172.007812 67.433594 171.578125 67.433594 L 170.210938 67.433594 L 170.210938 67.394531 L 171.617188 65.949219 C 172.515625 65.050781 172.75 64.699219 172.75 64.191406 C 172.75 63.488281 172.242188 62.921875 171.519531 62.921875 C 171.1875 62.921875 170.855469 63.019531 170.5625 63.253906 C 170.308594 63.449219 170.132812 63.703125 169.957031 64.152344 Z M 170.113281 64.191406 "/>
<path style="fill:none;stroke-width:1;stroke-linecap:round;stroke-linejoin:round;stroke:rgb(0%,0%,0%);stroke-opacity:1;stroke-miterlimit:10;" d="M 349.225 418.9 L 403.975 418.9 " transform="matrix(1.25,0,0,1.25,-357.5,-461.25)"/>
<path style="fill:none;stroke-width:1;stroke-linecap:butt;stroke-linejoin:miter;stroke:rgb(0%,0%,0%);stroke-opacity:1;stroke-miterlimit:10;" d="M 407.975 418.9 L 403.975 418.9 M 403.975 417.4 L 407.975 418.9 L 403.975 420.4 " transform="matrix(1.25,0,0,1.25,-357.5,-461.25)"/>
<path style="fill:none;stroke-width:1;stroke-linecap:round;stroke-linejoin:round;stroke:rgb(0%,0%,0%);stroke-opacity:1;stroke-miterlimit:10;" d="M 491.2 418.9 L 436.778125 418.9 " transform="matrix(1.25,0,0,1.25,-357.5,-461.25)"/>
<path style="fill:none;stroke-width:1;stroke-linecap:butt;stroke-linejoin:miter;stroke:rgb(0%,0%,0%);stroke-opacity:1;stroke-miterlimit:10;" d="M 432.778125 418.9 L 436.778125 418.9 M 436.778125 420.4 L 432.778125 418.9 L 436.778125 417.4 " transform="matrix(1.25,0,0,1.25,-357.5,-461.25)"/>
<path style="fill:none;stroke-width:1;stroke-linecap:round;stroke-linejoin:round;stroke:rgb(0%,0%,0%);stroke-opacity:1;stroke-miterlimit:10;" d="M 409.875 369.6 L 430.875 369.6 L 430.875 390.6 L 409.875 390.6 Z M 409.875 369.6 " transform="matrix(1.25,0,0,1.25,-357.5,-461.25)"/>
<path style=" stroke:none;fill-rule:nonzero;fill:rgb(0%,0%,0%);fill-opacity:1;" d="M 169.902344 12.019531 L 169.746094 12.019531 C 169.648438 12.175781 169.570312 12.234375 169.394531 12.234375 C 169.316406 12.234375 169.21875 12.214844 169.003906 12.15625 C 168.710938 12.078125 168.554688 12.039062 168.359375 12.039062 C 167.539062 12.039062 167.011719 12.507812 167.011719 13.25 C 167.011719 13.621094 167.226562 14.128906 167.714844 14.734375 C 168.164062 15.28125 168.339844 15.652344 168.339844 16.023438 C 168.339844 16.570312 168.027344 16.882812 167.5 16.882812 C 166.914062 16.882812 166.523438 16.433594 166.367188 15.359375 L 166.191406 15.359375 L 165.957031 17.136719 L 166.132812 17.136719 C 166.210938 16.960938 166.347656 16.902344 166.464844 16.902344 C 166.582031 16.902344 166.757812 16.921875 166.953125 17.019531 C 167.226562 17.117188 167.382812 17.117188 167.578125 17.117188 C 168.515625 17.117188 169.199219 16.550781 169.199219 15.613281 C 169.199219 15.183594 169.003906 14.734375 168.4375 14.089844 C 167.988281 13.5625 167.832031 13.25 167.832031 12.9375 C 167.832031 12.527344 168.105469 12.292969 168.496094 12.292969 C 169.042969 12.292969 169.375 12.664062 169.492188 13.601562 L 169.667969 13.601562 Z M 169.902344 12.019531 "/>
<path style="fill:none;stroke-width:1;stroke-linecap:round;stroke-linejoin:round;stroke:rgb(0%,0%,0%);stroke-opacity:1;stroke-miterlimit:10;" d="M 573.175 369.6 L 594.175 369.6 L 594.175 390.6 L 573.175 390.6 Z M 573.175 369.6 " transform="matrix(1.25,0,0,1.25,-357.5,-461.25)"/>
<path style=" stroke:none;fill-rule:nonzero;fill:rgb(0%,0%,0%);fill-opacity:1;" d="M 375.125 9.65625 L 372.273438 9.65625 L 372.273438 9.832031 C 372.976562 9.910156 373.132812 9.988281 373.132812 10.300781 C 373.132812 10.457031 373.09375 10.691406 372.996094 11.023438 L 371.570312 16.121094 C 371.433594 16.570312 371.238281 16.84375 370.964844 16.84375 C 370.691406 16.84375 370.574219 16.726562 370.574219 16.394531 C 370.574219 16.296875 370.613281 16.238281 370.613281 16.101562 C 370.613281 15.828125 370.339844 15.574219 370.027344 15.574219 C 369.734375 15.574219 369.539062 15.847656 369.539062 16.21875 C 369.539062 16.804688 370.066406 17.195312 370.847656 17.195312 C 371.414062 17.195312 371.921875 17.019531 372.234375 16.589844 C 372.527344 16.199219 372.800781 15.652344 373.035156 14.792969 L 374.207031 10.671875 C 374.382812 9.988281 374.480469 9.929688 375.125 9.832031 Z M 375.125 9.65625 "/>
<path style="fill-rule:nonzero;fill:rgb(69.803922%,85.098039%,100%);fill-opacity:1;stroke-width:1;stroke-linecap:round;stroke-linejoin:round;stroke:rgb(0%,0%,0%);stroke-opacity:1;stroke-miterlimit:10;" d="M 509.125 372.675 C 513.221875 376.778125 513.221875 383.425 509.125 387.525 C 505.025 391.625 498.375 391.625 494.275 387.525 C 490.171875 383.425 490.171875 376.778125 494.275 372.675 C 498.375 368.575 505.025 368.575 509.125 372.675 " transform="matrix(1.25,0,0,1.25,-357.5,-461.25)"/>
<path style=" stroke:none;fill-rule:nonzero;fill:rgb(0%,0%,0%);fill-opacity:1;" d="M 272.46875 14.519531 L 272.46875 13.777344 L 270.007812 13.777344 L 270.007812 11.316406 L 269.265625 11.316406 L 269.265625 13.777344 L 266.804688 13.777344 L 266.804688 14.519531 L 269.265625 14.519531 L 269.265625 17 L 270.007812 17 L 270.007812 14.519531 Z M 272.46875 14.519531 "/>
<path style="fill:none;stroke-width:1;stroke-linecap:round;stroke-linejoin:round;stroke:rgb(0%,0%,0%);stroke-opacity:1;stroke-miterlimit:10;" d="M 420.6 407.8 L 420.50625 396.5 " transform="matrix(1.25,0,0,1.25,-357.5,-461.25)"/>
<path style="fill:none;stroke-width:1;stroke-linecap:butt;stroke-linejoin:miter;stroke:rgb(0%,0%,0%);stroke-opacity:1;stroke-miterlimit:10;" d="M 420.475 392.5 L 420.50625 396.5 M 419.00625 396.5125 L 420.475 392.5 L 422.00625 396.4875 " transform="matrix(1.25,0,0,1.25,-357.5,-461.25)"/>
<path style="fill:none;stroke-width:1;stroke-linecap:round;stroke-linejoin:round;stroke:rgb(0%,0%,0%);stroke-opacity:1;stroke-miterlimit:10;" d="M 430.875 380.1 L 485.296875 380.1 " transform="matrix(1.25,0,0,1.25,-357.5,-461.25)"/>
<path style="fill:none;stroke-width:1;stroke-linecap:butt;stroke-linejoin:miter;stroke:rgb(0%,0%,0%);stroke-opacity:1;stroke-miterlimit:10;" d="M 489.296875 380.1 L 485.296875 380.1 M 485.296875 378.6 L 489.296875 380.1 L 485.296875 381.6 " transform="matrix(1.25,0,0,1.25,-357.5,-461.25)"/>
<path style="fill:none;stroke-width:1;stroke-linecap:round;stroke-linejoin:round;stroke:rgb(0%,0%,0%);stroke-opacity:1;stroke-miterlimit:10;" d="M 532.35 409 L 513.63125 391.35 " transform="matrix(1.25,0,0,1.25,-357.5,-461.25)"/>
<path style="fill:none;stroke-width:1;stroke-linecap:butt;stroke-linejoin:miter;stroke:rgb(0%,0%,0%);stroke-opacity:1;stroke-miterlimit:10;" d="M 510.721875 388.60625 L 513.63125 391.35 M 512.6 392.440625 L 510.721875 388.60625 L 514.659375 390.25625 " transform="matrix(1.25,0,0,1.25,-357.5,-461.25)"/>
<path style="fill:none;stroke-width:1;stroke-linecap:round;stroke-linejoin:round;stroke:rgb(0%,0%,0%);stroke-opacity:1;stroke-miterlimit:10;" d="M 512.2 380.1 L 567.275 380.1 " transform="matrix(1.25,0,0,1.25,-357.5,-461.25)"/>
<path style="fill:none;stroke-width:1;stroke-linecap:butt;stroke-linejoin:miter;stroke:rgb(0%,0%,0%);stroke-opacity:1;stroke-miterlimit:10;" d="M 571.275 380.1 L 567.275 380.1 M 567.275 378.6 L 571.275 380.1 L 567.275 381.6 " transform="matrix(1.25,0,0,1.25,-357.5,-461.25)"/>
</g>
</svg>
