<?xml version="1.0" encoding="UTF-8"?>
<svg xmlns="http://www.w3.org/2000/svg" xmlns:xlink="http://www.w3.org/1999/xlink" width="329pt" height="110pt" viewBox="0 0 329 110" version="1.1">
<g id="surface1">
<path style="fill-rule:nonzero;fill:rgb(69.803922%,85.098039%,100%);fill-opacity:1;stroke-width:1;stroke-linecap:round;stroke-linejoin:round;stroke:rgb(0%,0%,0%);stroke-opacity:1;stroke-miterlimit:10;" d="M 107.015625 77.734375 C 111.996875 82.715625 111.996875 90.784375 107.015625 95.765625 C 102.034375 100.746875 93.965625 100.746875 88.984375 95.765625 C 84.003125 90.784375 84.003125 82.715625 88.984375 77.734375 C 93.965625 72.753125 102.034375 72.753125 107.015625 77.734375 " transform="matrix(1.25,0,0,1.25,-8.75,-15)"/>
<path style=" stroke:none;fill-rule:nonzero;fill:rgb(0%,0%,0%);fill-opacity:1;" d="M 112.113281 91.328125 C 111.957031 90.546875 111.820312 90.351562 111.546875 90.351562 C 111.273438 90.351562 110.902344 90.429688 110.21875 90.683594 L 110.101562 90.722656 L 110.140625 90.898438 L 110.335938 90.839844 C 110.550781 90.78125 110.6875 90.761719 110.765625 90.761719 C 111.058594 90.761719 111.136719 90.859375 111.292969 91.523438 L 111.605469 92.929688 L 110.6875 94.238281 C 110.453125 94.570312 110.238281 94.785156 110.101562 94.785156 C 110.042969 94.785156 109.925781 94.746094 109.808594 94.6875 C 109.671875 94.609375 109.554688 94.550781 109.457031 94.550781 C 109.242188 94.550781 109.066406 94.746094 109.066406 94.960938 C 109.066406 95.253906 109.28125 95.429688 109.632812 95.429688 C 109.984375 95.429688 110.21875 95.332031 110.707031 94.667969 L 111.703125 93.339844 L 112.015625 94.667969 C 112.152344 95.234375 112.328125 95.429688 112.679688 95.429688 C 113.109375 95.429688 113.402344 95.175781 114.066406 94.160156 L 113.890625 94.042969 C 113.792969 94.160156 113.753906 94.238281 113.65625 94.375 C 113.402344 94.707031 113.265625 94.824219 113.128906 94.824219 C 112.972656 94.824219 112.875 94.667969 112.796875 94.355469 L 112.425781 92.851562 C 112.367188 92.578125 112.328125 92.421875 112.328125 92.34375 C 112.835938 91.484375 113.246094 90.976562 113.441406 90.976562 C 113.714844 90.976562 113.8125 91.171875 114.027344 91.171875 C 114.242188 91.171875 114.398438 90.996094 114.398438 90.761719 C 114.398438 90.527344 114.222656 90.351562 113.949219 90.351562 C 113.460938 90.351562 113.03125 90.761719 112.25 91.953125 Z M 112.113281 91.328125 "/>
<path style=" stroke:none;fill-rule:nonzero;fill:rgb(0%,0%,0%);fill-opacity:1;" d="M 117.320312 99.0625 L 117.320312 98.945312 C 116.753906 98.945312 116.617188 98.808594 116.617188 98.496094 L 116.617188 94.023438 L 116.539062 93.984375 L 115.210938 94.667969 L 115.210938 94.785156 L 115.40625 94.707031 C 115.542969 94.648438 115.660156 94.609375 115.738281 94.609375 C 115.894531 94.609375 115.972656 94.726562 115.972656 94.980469 L 115.972656 98.359375 C 115.972656 98.769531 115.816406 98.925781 115.25 98.945312 L 115.25 99.0625 Z M 117.320312 99.0625 "/>
<path style="fill-rule:nonzero;fill:rgb(69.803922%,85.098039%,100%);fill-opacity:1;stroke-width:1;stroke-linecap:round;stroke-linejoin:round;stroke:rgb(0%,0%,0%);stroke-opacity:1;stroke-miterlimit:10;" d="M 159.890625 77.734375 C 164.871875 82.715625 164.871875 90.784375 159.890625 95.765625 C 154.909375 100.746875 146.840625 100.746875 141.859375 95.765625 C 136.878125 90.784375 136.878125 82.715625 141.859375 77.734375 C 146.840625 72.753125 154.909375 72.753125 159.890625 77.734375 " transform="matrix(1.25,0,0,1.25,-8.75,-15)"/>
<path style=" stroke:none;fill-rule:nonzero;fill:rgb(0%,0%,0%);fill-opacity:1;" d="M 178.207031 91.328125 C 178.050781 90.546875 177.914062 90.351562 177.640625 90.351562 C 177.367188 90.351562 176.996094 90.429688 176.3125 90.683594 L 176.195312 90.722656 L 176.234375 90.898438 L 176.429688 90.839844 C 176.644531 90.78125 176.78125 90.761719 176.859375 90.761719 C 177.152344 90.761719 177.230469 90.859375 177.386719 91.523438 L 177.699219 92.929688 L 176.78125 94.238281 C 176.546875 94.570312 176.332031 94.785156 176.195312 94.785156 C 176.136719 94.785156 176.019531 94.746094 175.902344 94.6875 C 175.765625 94.609375 175.648438 94.550781 175.550781 94.550781 C 175.335938 94.550781 175.160156 94.746094 175.160156 94.960938 C 175.160156 95.253906 175.375 95.429688 175.726562 95.429688 C 176.078125 95.429688 176.3125 95.332031 176.800781 94.667969 L 177.796875 93.339844 L 178.109375 94.667969 C 178.246094 95.234375 178.421875 95.429688 178.773438 95.429688 C 179.203125 95.429688 179.496094 95.175781 180.160156 94.160156 L 179.984375 94.042969 C 179.886719 94.160156 179.847656 94.238281 179.75 94.375 C 179.496094 94.707031 179.359375 94.824219 179.222656 94.824219 C 179.066406 94.824219 178.96875 94.667969 178.890625 94.355469 L 178.519531 92.851562 C 178.460938 92.578125 178.421875 92.421875 178.421875 92.34375 C 178.929688 91.484375 179.339844 90.976562 179.535156 90.976562 C 179.808594 90.976562 179.90625 91.171875 180.121094 91.171875 C 180.335938 91.171875 180.492188 90.996094 180.492188 90.761719 C 180.492188 90.527344 180.316406 90.351562 180.042969 90.351562 C 179.554688 90.351562 179.125 90.761719 178.34375 91.953125 Z M 178.207031 91.328125 "/>
<path style=" stroke:none;fill-rule:nonzero;fill:rgb(0%,0%,0%);fill-opacity:1;" d="M 184.019531 98.027344 L 183.921875 97.988281 C 183.667969 98.417969 183.511719 98.496094 183.199219 98.496094 L 181.441406 98.496094 L 182.671875 97.167969 C 183.335938 96.464844 183.628906 95.898438 183.628906 95.3125 C 183.628906 94.570312 183.101562 93.984375 182.242188 93.984375 C 181.324219 93.984375 180.855469 94.609375 180.699219 95.488281 L 180.855469 95.527344 C 181.148438 94.785156 181.402344 94.550781 181.949219 94.550781 C 182.59375 94.550781 182.984375 94.921875 182.984375 95.605469 C 182.984375 96.25 182.730469 96.816406 182.007812 97.558594 L 180.679688 98.964844 L 180.679688 99.0625 L 183.609375 99.0625 Z M 184.019531 98.027344 "/>
<path style="fill-rule:nonzero;fill:rgb(40%,74.901961%,100%);fill-opacity:1;stroke-width:1;stroke-linecap:round;stroke-linejoin:round;stroke:rgb(0%,0%,0%);stroke-opacity:1;stroke-miterlimit:10;" d="M 140.015625 16.734375 C 144.996875 21.715625 144.996875 29.784375 140.015625 34.765625 C 135.034375 39.746875 126.965625 39.746875 121.984375 34.765625 C 117.003125 29.784375 117.003125 21.715625 121.984375 16.734375 C 126.965625 11.753125 135.034375 11.753125 140.015625 16.734375 " transform="matrix(1.25,0,0,1.25,-8.75,-15)"/>
<path style=" stroke:none;fill-rule:nonzero;fill:rgb(0%,0%,0%);fill-opacity:1;" d="M 155.585938 15.683594 C 155.585938 14.6875 154.902344 14.101562 153.984375 14.101562 C 153.535156 14.101562 153.085938 14.199219 152.636719 14.433594 C 151.464844 15.078125 150.625 16.367188 150.625 17.617188 C 150.625 18.59375 151.210938 19.179688 152.265625 19.179688 C 153.007812 19.179688 153.730469 18.90625 154.394531 18.261719 C 155.136719 17.519531 155.585938 16.523438 155.585938 15.683594 Z M 154.628906 15.390625 C 154.628906 16.25 154.316406 17.304688 153.808594 18.007812 C 153.359375 18.632812 152.929688 18.945312 152.441406 18.945312 C 151.914062 18.945312 151.5625 18.59375 151.5625 17.929688 C 151.5625 17.03125 151.875 16.152344 152.402344 15.351562 C 152.851562 14.6875 153.339844 14.335938 153.828125 14.335938 C 154.316406 14.335938 154.628906 14.707031 154.628906 15.390625 Z M 154.628906 15.390625 "/>
<path style=" stroke:none;fill-rule:nonzero;fill:rgb(0%,0%,0%);fill-opacity:1;" d="M 158.886719 22.8125 L 158.886719 22.695312 C 158.320312 22.695312 158.183594 22.558594 158.183594 22.246094 L 158.183594 17.773438 L 158.105469 17.734375 L 156.777344 18.417969 L 156.777344 18.535156 L 156.972656 18.457031 C 157.109375 18.398438 157.226562 18.359375 157.304688 18.359375 C 157.460938 18.359375 157.539062 18.476562 157.539062 18.730469 L 157.539062 22.109375 C 157.539062 22.519531 157.382812 22.675781 156.816406 22.695312 L 156.816406 22.8125 Z M 158.886719 22.8125 "/>
<path style=" stroke:none;fill-rule:nonzero;fill:rgb(0%,0%,0%);fill-opacity:1;" d="M 12.289062 95.625 L 12.289062 87.578125 L 13.34375 87.578125 L 13.34375 95.625 Z M 12.289062 95.625 "/>
<path style=" stroke:none;fill-rule:nonzero;fill:rgb(0%,0%,0%);fill-opacity:1;" d="M 15.101562 95.625 L 15.101562 89.785156 L 16 89.785156 L 16 90.625 C 16.414062 89.992188 17.035156 89.667969 17.855469 89.667969 C 18.207031 89.667969 18.523438 89.734375 18.8125 89.863281 C 19.109375 89.980469 19.332031 90.148438 19.476562 90.351562 C 19.617188 90.546875 19.722656 90.789062 19.789062 91.074219 C 19.828125 91.257812 19.847656 91.578125 19.847656 92.03125 L 19.847656 95.625 L 18.851562 95.625 L 18.851562 92.070312 C 18.851562 91.671875 18.8125 91.367188 18.734375 91.171875 C 18.65625 90.976562 18.519531 90.820312 18.324219 90.703125 C 18.128906 90.578125 17.898438 90.507812 17.640625 90.507812 C 17.222656 90.507812 16.859375 90.644531 16.546875 90.917969 C 16.246094 91.179688 16.097656 91.6875 16.097656 92.441406 L 16.097656 95.625 Z M 15.101562 95.625 "/>
<path style=" stroke:none;fill-rule:nonzero;fill:rgb(0%,0%,0%);fill-opacity:1;" d="M 21.359375 97.851562 L 21.359375 89.785156 L 22.257812 89.785156 L 22.257812 90.546875 C 22.460938 90.25 22.695312 90.03125 22.960938 89.882812 C 23.234375 89.742188 23.566406 89.667969 23.957031 89.667969 C 24.449219 89.667969 24.882812 89.800781 25.265625 90.058594 C 25.640625 90.308594 25.929688 90.664062 26.125 91.132812 C 26.320312 91.601562 26.417969 92.109375 26.417969 92.65625 C 26.417969 93.257812 26.304688 93.796875 26.085938 94.277344 C 25.875 94.761719 25.566406 95.132812 25.167969 95.390625 C 24.761719 95.632812 24.332031 95.761719 23.878906 95.761719 C 23.550781 95.761719 23.257812 95.6875 23 95.546875 C 22.734375 95.40625 22.519531 95.230469 22.355469 95.019531 L 22.355469 97.851562 Z M 22.257812 92.734375 C 22.257812 93.492188 22.402344 94.054688 22.707031 94.414062 C 23.019531 94.765625 23.390625 94.941406 23.820312 94.941406 C 24.25 94.941406 24.621094 94.761719 24.933594 94.394531 C 25.253906 94.019531 25.421875 93.4375 25.421875 92.65625 C 25.421875 91.914062 25.265625 91.363281 24.953125 90.996094 C 24.648438 90.621094 24.289062 90.429688 23.859375 90.429688 C 23.4375 90.429688 23.066406 90.632812 22.746094 91.035156 C 22.417969 91.425781 22.257812 91.992188 22.257812 92.734375 Z M 22.257812 92.734375 "/>
<path style=" stroke:none;fill-rule:nonzero;fill:rgb(0%,0%,0%);fill-opacity:1;" d="M 31.445312 95.625 L 31.445312 94.765625 C 30.984375 95.429688 30.371094 95.761719 29.589844 95.761719 C 29.246094 95.761719 28.929688 95.695312 28.632812 95.566406 C 28.328125 95.425781 28.105469 95.253906 27.949219 95.058594 C 27.800781 94.863281 27.703125 94.625 27.65625 94.335938 C 27.617188 94.140625 27.597656 93.828125 27.597656 93.398438 L 27.597656 89.785156 L 28.574219 89.785156 L 28.574219 93.027344 C 28.574219 93.550781 28.597656 93.898438 28.652344 94.0625 C 28.699219 94.328125 28.828125 94.53125 29.023438 94.6875 C 29.226562 94.835938 29.480469 94.902344 29.785156 94.902344 C 30.082031 94.902344 30.359375 94.835938 30.625 94.6875 C 30.882812 94.53125 31.0625 94.328125 31.171875 94.0625 C 31.273438 93.804688 31.328125 93.417969 31.328125 92.910156 L 31.328125 89.785156 L 32.324219 89.785156 L 32.324219 95.625 Z M 31.445312 95.625 "/>
<path style=" stroke:none;fill-rule:nonzero;fill:rgb(0%,0%,0%);fill-opacity:1;" d="M 36.042969 94.746094 L 36.179688 95.605469 C 35.890625 95.667969 35.640625 95.703125 35.4375 95.703125 C 35.070312 95.703125 34.792969 95.644531 34.597656 95.527344 C 34.402344 95.410156 34.253906 95.265625 34.167969 95.078125 C 34.089844 94.898438 34.050781 94.511719 34.050781 93.925781 L 34.050781 90.566406 L 33.328125 90.566406 L 33.328125 89.785156 L 34.050781 89.785156 L 34.050781 88.339844 L 35.046875 87.753906 L 35.046875 89.785156 L 36.042969 89.785156 L 36.042969 90.566406 L 35.046875 90.566406 L 35.046875 93.964844 C 35.046875 94.253906 35.054688 94.433594 35.085938 94.511719 C 35.125 94.589844 35.183594 94.65625 35.261719 94.707031 C 35.339844 94.761719 35.445312 94.785156 35.59375 94.785156 C 35.710938 94.785156 35.855469 94.773438 36.042969 94.746094 Z M 36.042969 94.746094 "/>
<path style=" stroke:none;fill-rule:nonzero;fill:rgb(0%,0%,0%);fill-opacity:1;" d="M 40.105469 95.625 L 40.105469 87.578125 L 41.082031 87.578125 L 41.082031 95.625 Z M 40.105469 95.625 "/>
<path style=" stroke:none;fill-rule:nonzero;fill:rgb(0%,0%,0%);fill-opacity:1;" d="M 46.433594 94.902344 C 46.066406 95.214844 45.714844 95.4375 45.378906 95.566406 C 45.035156 95.695312 44.675781 95.761719 44.285156 95.761719 C 43.644531 95.761719 43.152344 95.605469 42.800781 95.292969 C 42.457031 94.980469 42.292969 94.578125 42.292969 94.082031 C 42.292969 93.796875 42.355469 93.535156 42.488281 93.300781 C 42.613281 93.066406 42.785156 92.882812 42.996094 92.734375 C 43.199219 92.59375 43.433594 92.480469 43.699219 92.402344 C 43.894531 92.363281 44.1875 92.320312 44.578125 92.265625 C 45.382812 92.179688 45.972656 92.0625 46.355469 91.914062 C 46.355469 91.789062 46.355469 91.699219 46.355469 91.660156 C 46.355469 91.257812 46.261719 90.976562 46.082031 90.820312 C 45.816406 90.585938 45.441406 90.46875 44.949219 90.46875 C 44.480469 90.46875 44.132812 90.554688 43.914062 90.722656 C 43.6875 90.878906 43.527344 91.167969 43.425781 91.582031 L 42.46875 91.464844 C 42.546875 91.050781 42.683594 90.71875 42.878906 90.46875 C 43.082031 90.210938 43.375 90.015625 43.757812 89.882812 C 44.148438 89.742188 44.585938 89.667969 45.085938 89.667969 C 45.59375 89.667969 45.992188 89.726562 46.296875 89.84375 C 46.609375 89.960938 46.832031 90.113281 46.980469 90.292969 C 47.136719 90.464844 47.238281 90.683594 47.292969 90.957031 C 47.332031 91.128906 47.351562 91.425781 47.351562 91.855469 L 47.351562 93.183594 C 47.351562 94.097656 47.371094 94.679688 47.410156 94.921875 C 47.449219 95.171875 47.53125 95.40625 47.664062 95.625 L 46.628906 95.625 C 46.519531 95.421875 46.457031 95.175781 46.433594 94.902344 Z M 46.355469 92.695312 C 45.988281 92.84375 45.445312 92.964844 44.734375 93.066406 C 44.328125 93.132812 44.039062 93.203125 43.875 93.28125 C 43.703125 93.351562 43.570312 93.453125 43.484375 93.59375 C 43.390625 93.742188 43.347656 93.898438 43.347656 94.0625 C 43.347656 94.328125 43.445312 94.546875 43.640625 94.726562 C 43.835938 94.898438 44.128906 94.980469 44.519531 94.980469 C 44.894531 94.980469 45.230469 94.898438 45.535156 94.726562 C 45.832031 94.5625 46.050781 94.332031 46.199219 94.042969 C 46.300781 93.824219 46.355469 93.496094 46.355469 93.066406 Z M 46.355469 92.695312 "/>
<path style=" stroke:none;fill-rule:nonzero;fill:rgb(0%,0%,0%);fill-opacity:1;" d="M 48.84375 97.871094 L 48.726562 96.953125 C 48.945312 97 49.136719 97.03125 49.292969 97.03125 C 49.511719 97.03125 49.6875 96.992188 49.820312 96.914062 C 49.945312 96.84375 50.058594 96.75 50.152344 96.621094 C 50.199219 96.515625 50.296875 96.269531 50.445312 95.878906 C 50.46875 95.824219 50.503906 95.746094 50.542969 95.644531 L 48.316406 89.785156 L 49.390625 89.785156 L 50.601562 93.164062 C 50.757812 93.59375 50.898438 94.042969 51.03125 94.511719 C 51.132812 94.070312 51.265625 93.628906 51.421875 93.183594 L 52.671875 89.785156 L 53.667969 89.785156 L 51.441406 95.722656 C 51.207031 96.359375 51.019531 96.800781 50.894531 97.050781 C 50.707031 97.375 50.507812 97.609375 50.289062 97.753906 C 50.0625 97.910156 49.789062 97.988281 49.46875 97.988281 C 49.28125 97.988281 49.078125 97.949219 48.84375 97.871094 Z M 48.84375 97.871094 "/>
<path style=" stroke:none;fill-rule:nonzero;fill:rgb(0%,0%,0%);fill-opacity:1;" d="M 58.492188 93.75 L 59.527344 93.867188 C 59.355469 94.46875 59.046875 94.9375 58.609375 95.273438 C 58.179688 95.601562 57.621094 95.761719 56.949219 95.761719 C 56.097656 95.761719 55.425781 95.503906 54.917969 94.980469 C 54.417969 94.449219 54.175781 93.707031 54.175781 92.753906 C 54.175781 91.777344 54.429688 91.023438 54.9375 90.488281 C 55.445312 89.941406 56.097656 89.667969 56.910156 89.667969 C 57.691406 89.667969 58.320312 89.9375 58.804688 90.46875 C 59.296875 90.992188 59.546875 91.734375 59.546875 92.695312 C 59.546875 92.765625 59.546875 92.851562 59.546875 92.96875 L 55.191406 92.96875 C 55.230469 93.609375 55.410156 94.097656 55.738281 94.433594 C 56.058594 94.773438 56.46875 94.941406 56.96875 94.941406 C 57.328125 94.941406 57.636719 94.851562 57.886719 94.667969 C 58.144531 94.472656 58.34375 94.171875 58.492188 93.75 Z M 55.25 92.148438 L 58.511719 92.148438 C 58.472656 91.65625 58.34375 91.285156 58.140625 91.035156 C 57.828125 90.660156 57.417969 90.46875 56.910156 90.46875 C 56.449219 90.46875 56.070312 90.625 55.757812 90.9375 C 55.453125 91.242188 55.289062 91.640625 55.25 92.148438 Z M 55.25 92.148438 "/>
<path style=" stroke:none;fill-rule:nonzero;fill:rgb(0%,0%,0%);fill-opacity:1;" d="M 60.742188 95.625 L 60.742188 89.785156 L 61.640625 89.785156 L 61.640625 90.683594 C 61.863281 90.269531 62.070312 89.996094 62.265625 89.863281 C 62.460938 89.734375 62.675781 89.667969 62.910156 89.667969 C 63.234375 89.667969 63.574219 89.773438 63.925781 89.980469 L 63.574219 90.898438 C 63.339844 90.757812 63.097656 90.683594 62.851562 90.683594 C 62.644531 90.683594 62.449219 90.75 62.265625 90.878906 C 62.097656 91.011719 61.972656 91.191406 61.894531 91.425781 C 61.789062 91.777344 61.738281 92.164062 61.738281 92.578125 L 61.738281 95.625 Z M 60.742188 95.625 "/>
<path style=" stroke:none;fill-rule:nonzero;fill:rgb(0%,0%,0%);fill-opacity:1;" d="M 7.40625 16.386719 C 7.40625 15.058594 7.761719 14.019531 8.480469 13.261719 C 9.191406 12.496094 10.121094 12.109375 11.253906 12.109375 C 11.996094 12.109375 12.664062 12.296875 13.265625 12.65625 C 13.859375 13.007812 14.320312 13.507812 14.632812 14.140625 C 14.945312 14.78125 15.101562 15.5 15.101562 16.289062 C 15.101562 17.109375 14.933594 17.847656 14.613281 18.496094 C 14.285156 19.136719 13.816406 19.625 13.207031 19.960938 C 12.605469 20.289062 11.957031 20.449219 11.253906 20.449219 C 10.496094 20.449219 9.816406 20.269531 9.222656 19.902344 C 8.621094 19.539062 8.167969 19.039062 7.855469 18.398438 C 7.550781 17.765625 7.40625 17.089844 7.40625 16.386719 Z M 8.5 16.40625 C 8.5 17.382812 8.757812 18.15625 9.28125 18.710938 C 9.796875 19.257812 10.457031 19.53125 11.253906 19.53125 C 12.042969 19.53125 12.703125 19.253906 13.226562 18.691406 C 13.742188 18.132812 14.007812 17.335938 14.007812 16.289062 C 14.007812 15.640625 13.894531 15.074219 13.675781 14.589844 C 13.449219 14.097656 13.128906 13.710938 12.699219 13.4375 C 12.269531 13.164062 11.789062 13.027344 11.273438 13.027344 C 10.515625 13.027344 9.867188 13.289062 9.320312 13.808594 C 8.773438 14.332031 8.5 15.195312 8.5 16.40625 Z M 8.5 16.40625 "/>
<path style=" stroke:none;fill-rule:nonzero;fill:rgb(0%,0%,0%);fill-opacity:1;" d="M 20.179688 20.3125 L 20.179688 19.453125 C 19.71875 20.117188 19.105469 20.449219 18.324219 20.449219 C 17.984375 20.449219 17.664062 20.382812 17.367188 20.253906 C 17.0625 20.113281 16.839844 19.941406 16.683594 19.746094 C 16.539062 19.550781 16.4375 19.3125 16.390625 19.023438 C 16.351562 18.828125 16.332031 18.515625 16.332031 18.085938 L 16.332031 14.472656 L 17.308594 14.472656 L 17.308594 17.714844 C 17.308594 18.238281 17.332031 18.585938 17.386719 18.75 C 17.4375 19.015625 17.5625 19.21875 17.757812 19.375 C 17.960938 19.523438 18.21875 19.589844 18.519531 19.589844 C 18.816406 19.589844 19.09375 19.523438 19.359375 19.375 C 19.617188 19.21875 19.796875 19.015625 19.90625 18.75 C 20.007812 18.492188 20.0625 18.105469 20.0625 17.597656 L 20.0625 14.472656 L 21.058594 14.472656 L 21.058594 20.3125 Z M 20.179688 20.3125 "/>
<path style=" stroke:none;fill-rule:nonzero;fill:rgb(0%,0%,0%);fill-opacity:1;" d="M 24.777344 19.433594 L 24.914062 20.292969 C 24.625 20.355469 24.375 20.390625 24.171875 20.390625 C 23.804688 20.390625 23.527344 20.332031 23.332031 20.214844 C 23.136719 20.097656 22.988281 19.953125 22.902344 19.765625 C 22.824219 19.585938 22.785156 19.199219 22.785156 18.613281 L 22.785156 15.253906 L 22.0625 15.253906 L 22.0625 14.472656 L 22.785156 14.472656 L 22.785156 13.027344 L 23.78125 12.441406 L 23.78125 14.472656 L 24.777344 14.472656 L 24.777344 15.253906 L 23.78125 15.253906 L 23.78125 18.652344 C 23.78125 18.941406 23.789062 19.121094 23.820312 19.199219 C 23.859375 19.277344 23.917969 19.34375 23.996094 19.394531 C 24.074219 19.449219 24.179688 19.472656 24.328125 19.472656 C 24.445312 19.472656 24.589844 19.460938 24.777344 19.433594 Z M 24.777344 19.433594 "/>
<path style=" stroke:none;fill-rule:nonzero;fill:rgb(0%,0%,0%);fill-opacity:1;" d="M 25.734375 22.539062 L 25.734375 14.472656 L 26.632812 14.472656 L 26.632812 15.234375 C 26.835938 14.9375 27.070312 14.71875 27.335938 14.570312 C 27.609375 14.429688 27.941406 14.355469 28.332031 14.355469 C 28.824219 14.355469 29.257812 14.488281 29.640625 14.746094 C 30.015625 14.996094 30.304688 15.351562 30.5 15.820312 C 30.695312 16.289062 30.792969 16.796875 30.792969 17.34375 C 30.792969 17.945312 30.679688 18.484375 30.460938 18.964844 C 30.25 19.449219 29.941406 19.820312 29.542969 20.078125 C 29.136719 20.324219 28.707031 20.449219 28.253906 20.449219 C 27.925781 20.449219 27.632812 20.375 27.375 20.234375 C 27.109375 20.09375 26.894531 19.917969 26.730469 19.707031 L 26.730469 22.539062 Z M 26.632812 17.421875 C 26.632812 18.179688 26.777344 18.742188 27.082031 19.101562 C 27.394531 19.453125 27.765625 19.628906 28.195312 19.628906 C 28.625 19.628906 28.996094 19.449219 29.308594 19.082031 C 29.628906 18.707031 29.796875 18.125 29.796875 17.34375 C 29.796875 16.601562 29.640625 16.050781 29.328125 15.683594 C 29.023438 15.308594 28.664062 15.117188 28.234375 15.117188 C 27.8125 15.117188 27.441406 15.320312 27.121094 15.722656 C 26.792969 16.113281 26.632812 16.679688 26.632812 17.421875 Z M 26.632812 17.421875 "/>
<path style=" stroke:none;fill-rule:nonzero;fill:rgb(0%,0%,0%);fill-opacity:1;" d="M 35.820312 20.3125 L 35.820312 19.453125 C 35.359375 20.117188 34.746094 20.449219 33.964844 20.449219 C 33.621094 20.449219 33.304688 20.382812 33.007812 20.253906 C 32.703125 20.113281 32.480469 19.941406 32.324219 19.746094 C 32.175781 19.550781 32.078125 19.3125 32.03125 19.023438 C 31.992188 18.828125 31.972656 18.515625 31.972656 18.085938 L 31.972656 14.472656 L 32.949219 14.472656 L 32.949219 17.714844 C 32.949219 18.238281 32.972656 18.585938 33.027344 18.75 C 33.074219 19.015625 33.203125 19.21875 33.398438 19.375 C 33.601562 19.523438 33.855469 19.589844 34.160156 19.589844 C 34.457031 19.589844 34.734375 19.523438 35 19.375 C 35.257812 19.21875 35.4375 19.015625 35.546875 18.75 C 35.648438 18.492188 35.703125 18.105469 35.703125 17.597656 L 35.703125 14.472656 L 36.699219 14.472656 L 36.699219 20.3125 Z M 35.820312 20.3125 "/>
<path style=" stroke:none;fill-rule:nonzero;fill:rgb(0%,0%,0%);fill-opacity:1;" d="M 40.417969 19.433594 L 40.554688 20.292969 C 40.265625 20.355469 40.015625 20.390625 39.8125 20.390625 C 39.445312 20.390625 39.167969 20.332031 38.972656 20.214844 C 38.777344 20.097656 38.628906 19.953125 38.542969 19.765625 C 38.464844 19.585938 38.425781 19.199219 38.425781 18.613281 L 38.425781 15.253906 L 37.703125 15.253906 L 37.703125 14.472656 L 38.425781 14.472656 L 38.425781 13.027344 L 39.421875 12.441406 L 39.421875 14.472656 L 40.417969 14.472656 L 40.417969 15.253906 L 39.421875 15.253906 L 39.421875 18.652344 C 39.421875 18.941406 39.429688 19.121094 39.460938 19.199219 C 39.5 19.277344 39.558594 19.34375 39.636719 19.394531 C 39.714844 19.449219 39.820312 19.472656 39.96875 19.472656 C 40.085938 19.472656 40.230469 19.460938 40.417969 19.433594 Z M 40.417969 19.433594 "/>
<path style=" stroke:none;fill-rule:nonzero;fill:rgb(0%,0%,0%);fill-opacity:1;" d="M 44.480469 20.3125 L 44.480469 12.265625 L 45.457031 12.265625 L 45.457031 20.3125 Z M 44.480469 20.3125 "/>
<path style=" stroke:none;fill-rule:nonzero;fill:rgb(0%,0%,0%);fill-opacity:1;" d="M 50.808594 19.589844 C 50.441406 19.902344 50.089844 20.125 49.753906 20.253906 C 49.410156 20.382812 49.050781 20.449219 48.660156 20.449219 C 48.019531 20.449219 47.527344 20.292969 47.175781 19.980469 C 46.832031 19.667969 46.667969 19.265625 46.667969 18.769531 C 46.667969 18.484375 46.730469 18.222656 46.863281 17.988281 C 46.988281 17.753906 47.160156 17.570312 47.371094 17.421875 C 47.574219 17.28125 47.808594 17.167969 48.074219 17.089844 C 48.269531 17.050781 48.5625 17.007812 48.953125 16.953125 C 49.757812 16.867188 50.347656 16.75 50.730469 16.601562 C 50.730469 16.476562 50.730469 16.386719 50.730469 16.347656 C 50.730469 15.945312 50.636719 15.664062 50.457031 15.507812 C 50.191406 15.273438 49.816406 15.15625 49.324219 15.15625 C 48.855469 15.15625 48.507812 15.242188 48.289062 15.410156 C 48.0625 15.566406 47.902344 15.855469 47.800781 16.269531 L 46.84375 16.152344 C 46.921875 15.738281 47.058594 15.40625 47.253906 15.15625 C 47.457031 14.898438 47.75 14.703125 48.132812 14.570312 C 48.523438 14.429688 48.960938 14.355469 49.460938 14.355469 C 49.96875 14.355469 50.367188 14.414062 50.671875 14.53125 C 50.984375 14.648438 51.207031 14.800781 51.355469 14.980469 C 51.511719 15.152344 51.613281 15.371094 51.667969 15.644531 C 51.707031 15.816406 51.726562 16.113281 51.726562 16.542969 L 51.726562 17.871094 C 51.726562 18.785156 51.746094 19.367188 51.785156 19.609375 C 51.824219 19.859375 51.90625 20.09375 52.039062 20.3125 L 51.003906 20.3125 C 50.894531 20.109375 50.832031 19.863281 50.808594 19.589844 Z M 50.730469 17.382812 C 50.363281 17.53125 49.820312 17.652344 49.109375 17.753906 C 48.703125 17.820312 48.414062 17.890625 48.25 17.96875 C 48.078125 18.039062 47.945312 18.140625 47.859375 18.28125 C 47.765625 18.429688 47.722656 18.585938 47.722656 18.75 C 47.722656 19.015625 47.820312 19.234375 48.015625 19.414062 C 48.210938 19.585938 48.503906 19.667969 48.894531 19.667969 C 49.269531 19.667969 49.605469 19.585938 49.910156 19.414062 C 50.207031 19.25 50.425781 19.019531 50.574219 18.730469 C 50.675781 18.511719 50.730469 18.183594 50.730469 17.753906 Z M 50.730469 17.382812 "/>
<path style=" stroke:none;fill-rule:nonzero;fill:rgb(0%,0%,0%);fill-opacity:1;" d="M 53.21875 22.558594 L 53.101562 21.640625 C 53.320312 21.6875 53.511719 21.71875 53.667969 21.71875 C 53.886719 21.71875 54.0625 21.679688 54.195312 21.601562 C 54.320312 21.53125 54.433594 21.4375 54.527344 21.308594 C 54.574219 21.203125 54.671875 20.957031 54.820312 20.566406 C 54.84375 20.511719 54.878906 20.433594 54.917969 20.332031 L 52.691406 14.472656 L 53.765625 14.472656 L 54.976562 17.851562 C 55.132812 18.28125 55.273438 18.730469 55.40625 19.199219 C 55.507812 18.757812 55.640625 18.316406 55.796875 17.871094 L 57.046875 14.472656 L 58.042969 14.472656 L 55.816406 20.410156 C 55.582031 21.046875 55.394531 21.488281 55.269531 21.738281 C 55.082031 22.0625 54.882812 22.296875 54.664062 22.441406 C 54.4375 22.597656 54.164062 22.675781 53.84375 22.675781 C 53.65625 22.675781 53.453125 22.636719 53.21875 22.558594 Z M 53.21875 22.558594 "/>
<path style=" stroke:none;fill-rule:nonzero;fill:rgb(0%,0%,0%);fill-opacity:1;" d="M 62.867188 18.4375 L 63.902344 18.554688 C 63.730469 19.15625 63.421875 19.625 62.984375 19.960938 C 62.554688 20.289062 61.996094 20.449219 61.324219 20.449219 C 60.472656 20.449219 59.800781 20.191406 59.292969 19.667969 C 58.792969 19.136719 58.550781 18.394531 58.550781 17.441406 C 58.550781 16.464844 58.804688 15.710938 59.3125 15.175781 C 59.820312 14.628906 60.472656 14.355469 61.285156 14.355469 C 62.066406 14.355469 62.695312 14.625 63.179688 15.15625 C 63.671875 15.679688 63.921875 16.421875 63.921875 17.382812 C 63.921875 17.453125 63.921875 17.539062 63.921875 17.65625 L 59.566406 17.65625 C 59.605469 18.296875 59.785156 18.785156 60.113281 19.121094 C 60.433594 19.460938 60.84375 19.628906 61.34375 19.628906 C 61.703125 19.628906 62.011719 19.539062 62.261719 19.355469 C 62.519531 19.160156 62.71875 18.859375 62.867188 18.4375 Z M 59.625 16.835938 L 62.886719 16.835938 C 62.847656 16.34375 62.71875 15.972656 62.515625 15.722656 C 62.203125 15.347656 61.792969 15.15625 61.285156 15.15625 C 60.824219 15.15625 60.445312 15.3125 60.132812 15.625 C 59.828125 15.929688 59.664062 16.328125 59.625 16.835938 Z M 59.625 16.835938 "/>
<path style=" stroke:none;fill-rule:nonzero;fill:rgb(0%,0%,0%);fill-opacity:1;" d="M 65.117188 20.3125 L 65.117188 14.472656 L 66.015625 14.472656 L 66.015625 15.371094 C 66.238281 14.957031 66.445312 14.683594 66.640625 14.550781 C 66.835938 14.421875 67.050781 14.355469 67.285156 14.355469 C 67.609375 14.355469 67.949219 14.460938 68.300781 14.667969 L 67.949219 15.585938 C 67.714844 15.445312 67.472656 15.371094 67.226562 15.371094 C 67.019531 15.371094 66.824219 15.4375 66.640625 15.566406 C 66.472656 15.699219 66.347656 15.878906 66.269531 16.113281 C 66.164062 16.464844 66.113281 16.851562 66.113281 17.265625 L 66.113281 20.3125 Z M 65.117188 20.3125 "/>
<path style="fill-rule:nonzero;fill:rgb(69.803922%,85.098039%,100%);fill-opacity:1;stroke-width:1;stroke-linecap:round;stroke-linejoin:round;stroke:rgb(0%,0%,0%);stroke-opacity:1;stroke-miterlimit:10;" d="M 212.765625 77.734375 C 217.746875 82.715625 217.746875 90.784375 212.765625 95.765625 C 207.784375 100.746875 199.715625 100.746875 194.734375 95.765625 C 189.753125 90.784375 189.753125 82.715625 194.734375 77.734375 C 199.715625 72.753125 207.784375 72.753125 212.765625 77.734375 " transform="matrix(1.25,0,0,1.25,-8.75,-15)"/>
<path style=" stroke:none;fill-rule:nonzero;fill:rgb(0%,0%,0%);fill-opacity:1;" d="M 244.300781 91.328125 C 244.144531 90.546875 244.007812 90.351562 243.734375 90.351562 C 243.460938 90.351562 243.089844 90.429688 242.40625 90.683594 L 242.289062 90.722656 L 242.328125 90.898438 L 242.523438 90.839844 C 242.738281 90.78125 242.875 90.761719 242.953125 90.761719 C 243.246094 90.761719 243.324219 90.859375 243.480469 91.523438 L 243.792969 92.929688 L 242.875 94.238281 C 242.640625 94.570312 242.425781 94.785156 242.289062 94.785156 C 242.230469 94.785156 242.113281 94.746094 241.996094 94.6875 C 241.859375 94.609375 241.742188 94.550781 241.644531 94.550781 C 241.429688 94.550781 241.253906 94.746094 241.253906 94.960938 C 241.253906 95.253906 241.46875 95.429688 241.820312 95.429688 C 242.171875 95.429688 242.40625 95.332031 242.894531 94.667969 L 243.890625 93.339844 L 244.203125 94.667969 C 244.339844 95.234375 244.515625 95.429688 244.867188 95.429688 C 245.296875 95.429688 245.589844 95.175781 246.253906 94.160156 L 246.078125 94.042969 C 245.980469 94.160156 245.941406 94.238281 245.84375 94.375 C 245.589844 94.707031 245.453125 94.824219 245.316406 94.824219 C 245.160156 94.824219 245.0625 94.667969 244.984375 94.355469 L 244.613281 92.851562 C 244.554688 92.578125 244.515625 92.421875 244.515625 92.34375 C 245.023438 91.484375 245.433594 90.976562 245.628906 90.976562 C 245.902344 90.976562 246 91.171875 246.214844 91.171875 C 246.429688 91.171875 246.585938 90.996094 246.585938 90.761719 C 246.585938 90.527344 246.410156 90.351562 246.136719 90.351562 C 245.648438 90.351562 245.21875 90.761719 244.4375 91.953125 Z M 244.300781 91.328125 "/>
<path style=" stroke:none;fill-rule:nonzero;fill:rgb(0%,0%,0%);fill-opacity:1;" d="M 247.007812 95.234375 C 247.320312 94.6875 247.671875 94.433594 248.140625 94.433594 C 248.628906 94.433594 248.941406 94.707031 248.941406 95.214844 C 248.941406 95.664062 248.707031 95.996094 248.335938 96.210938 C 248.179688 96.308594 247.984375 96.386719 247.710938 96.484375 L 247.710938 96.582031 C 248.140625 96.582031 248.296875 96.601562 248.472656 96.660156 C 248.980469 96.816406 249.253906 97.1875 249.253906 97.753906 C 249.253906 98.378906 248.824219 98.90625 248.277344 98.90625 C 248.0625 98.90625 247.90625 98.867188 247.632812 98.671875 C 247.417969 98.515625 247.300781 98.476562 247.164062 98.476562 C 247.007812 98.476562 246.871094 98.574219 246.871094 98.730469 C 246.871094 99.003906 247.164062 99.160156 247.710938 99.160156 C 248.375 99.160156 249.078125 98.945312 249.449219 98.476562 C 249.664062 98.183594 249.800781 97.8125 249.800781 97.421875 C 249.800781 97.03125 249.664062 96.679688 249.46875 96.445312 C 249.3125 96.289062 249.175781 96.191406 248.84375 96.054688 C 249.332031 95.761719 249.527344 95.371094 249.527344 95.019531 C 249.527344 94.414062 249.058594 93.984375 248.375 93.984375 C 247.59375 93.984375 247.105469 94.492188 246.890625 95.214844 Z M 247.007812 95.234375 "/>
<path style="fill-rule:nonzero;fill:rgb(69.803922%,85.098039%,100%);fill-opacity:1;stroke-width:1;stroke-linecap:round;stroke-linejoin:round;stroke:rgb(0%,0%,0%);stroke-opacity:1;stroke-miterlimit:10;" d="M 265.640625 76.984375 C 270.621875 81.965625 270.621875 90.034375 265.640625 95.015625 C 260.659375 99.996875 252.590625 99.996875 247.609375 95.015625 C 242.628125 90.034375 242.628125 81.965625 247.609375 76.984375 C 252.590625 72.003125 260.659375 72.003125 265.640625 76.984375 " transform="matrix(1.25,0,0,1.25,-8.75,-15)"/>
<path style=" stroke:none;fill-rule:nonzero;fill:rgb(0%,0%,0%);fill-opacity:1;" d="M 310.394531 90.390625 C 310.238281 89.609375 310.101562 89.414062 309.828125 89.414062 C 309.554688 89.414062 309.183594 89.492188 308.5 89.746094 L 308.382812 89.785156 L 308.421875 89.960938 L 308.617188 89.902344 C 308.832031 89.84375 308.96875 89.824219 309.046875 89.824219 C 309.339844 89.824219 309.417969 89.921875 309.574219 90.585938 L 309.886719 91.992188 L 308.96875 93.300781 C 308.734375 93.632812 308.519531 93.847656 308.382812 93.847656 C 308.324219 93.847656 308.207031 93.808594 308.089844 93.75 C 307.953125 93.671875 307.835938 93.613281 307.738281 93.613281 C 307.523438 93.613281 307.347656 93.808594 307.347656 94.023438 C 307.347656 94.316406 307.5625 94.492188 307.914062 94.492188 C 308.265625 94.492188 308.5 94.394531 308.988281 93.730469 L 309.984375 92.402344 L 310.296875 93.730469 C 310.433594 94.296875 310.609375 94.492188 310.960938 94.492188 C 311.390625 94.492188 311.683594 94.238281 312.347656 93.222656 L 312.171875 93.105469 C 312.074219 93.222656 312.035156 93.300781 311.9375 93.4375 C 311.683594 93.769531 311.546875 93.886719 311.410156 93.886719 C 311.253906 93.886719 311.15625 93.730469 311.078125 93.417969 L 310.707031 91.914062 C 310.648438 91.640625 310.609375 91.484375 310.609375 91.40625 C 311.117188 90.546875 311.527344 90.039062 311.722656 90.039062 C 311.996094 90.039062 312.09375 90.234375 312.308594 90.234375 C 312.523438 90.234375 312.679688 90.058594 312.679688 89.824219 C 312.679688 89.589844 312.503906 89.414062 312.230469 89.414062 C 311.742188 89.414062 311.3125 89.824219 310.53125 91.015625 Z M 310.394531 90.390625 "/>
<path style=" stroke:none;fill-rule:nonzero;fill:rgb(0%,0%,0%);fill-opacity:1;" d="M 316.207031 96.875 L 316.207031 96.386719 L 315.425781 96.386719 L 315.425781 93.046875 L 315.09375 93.046875 L 312.75 96.386719 L 312.75 96.875 L 314.839844 96.875 L 314.839844 98.125 L 315.425781 98.125 L 315.425781 96.875 Z M 314.839844 96.386719 L 313.042969 96.386719 L 314.839844 93.828125 Z M 314.839844 96.386719 "/>
<path style="fill-rule:nonzero;fill:rgb(40%,74.901961%,100%);fill-opacity:1;stroke-width:1;stroke-linecap:round;stroke-linejoin:round;stroke:rgb(0%,0%,0%);stroke-opacity:1;stroke-miterlimit:10;" d="M 231.265625 16.734375 C 236.246875 21.715625 236.246875 29.784375 231.265625 34.765625 C 226.284375 39.746875 218.215625 39.746875 213.234375 34.765625 C 208.253125 29.784375 208.253125 21.715625 213.234375 16.734375 C 218.215625 11.753125 226.284375 11.753125 231.265625 16.734375 " transform="matrix(1.25,0,0,1.25,-8.75,-15)"/>
<path style=" stroke:none;fill-rule:nonzero;fill:rgb(0%,0%,0%);fill-opacity:1;" d="M 269.648438 15.683594 C 269.648438 14.6875 268.964844 14.101562 268.046875 14.101562 C 267.597656 14.101562 267.148438 14.199219 266.699219 14.433594 C 265.527344 15.078125 264.6875 16.367188 264.6875 17.617188 C 264.6875 18.59375 265.273438 19.179688 266.328125 19.179688 C 267.070312 19.179688 267.792969 18.90625 268.457031 18.261719 C 269.199219 17.519531 269.648438 16.523438 269.648438 15.683594 Z M 268.691406 15.390625 C 268.691406 16.25 268.378906 17.304688 267.871094 18.007812 C 267.421875 18.632812 266.992188 18.945312 266.503906 18.945312 C 265.976562 18.945312 265.625 18.59375 265.625 17.929688 C 265.625 17.03125 265.9375 16.152344 266.464844 15.351562 C 266.914062 14.6875 267.402344 14.335938 267.890625 14.335938 C 268.378906 14.335938 268.691406 14.707031 268.691406 15.390625 Z M 268.691406 15.390625 "/>
<path style=" stroke:none;fill-rule:nonzero;fill:rgb(0%,0%,0%);fill-opacity:1;" d="M 270.449219 18.984375 C 270.761719 18.4375 271.113281 18.183594 271.582031 18.183594 C 272.070312 18.183594 272.382812 18.457031 272.382812 18.964844 C 272.382812 19.414062 272.148438 19.746094 271.777344 19.960938 C 271.621094 20.058594 271.425781 20.136719 271.152344 20.234375 L 271.152344 20.332031 C 271.582031 20.332031 271.738281 20.351562 271.914062 20.410156 C 272.421875 20.566406 272.695312 20.9375 272.695312 21.503906 C 272.695312 22.128906 272.265625 22.65625 271.71875 22.65625 C 271.503906 22.65625 271.347656 22.617188 271.074219 22.421875 C 270.859375 22.265625 270.742188 22.226562 270.605469 22.226562 C 270.449219 22.226562 270.3125 22.324219 270.3125 22.480469 C 270.3125 22.753906 270.605469 22.910156 271.152344 22.910156 C 271.816406 22.910156 272.519531 22.695312 272.890625 22.226562 C 273.105469 21.933594 273.242188 21.5625 273.242188 21.171875 C 273.242188 20.78125 273.105469 20.429688 272.910156 20.195312 C 272.753906 20.039062 272.617188 19.941406 272.285156 19.804688 C 272.773438 19.511719 272.96875 19.121094 272.96875 18.769531 C 272.96875 18.164062 272.5 17.734375 271.816406 17.734375 C 271.035156 17.734375 270.546875 18.242188 270.332031 18.964844 Z M 270.449219 18.984375 "/>
<path style="fill-rule:nonzero;fill:rgb(40%,74.901961%,100%);fill-opacity:1;stroke-width:1;stroke-linecap:round;stroke-linejoin:round;stroke:rgb(0%,0%,0%);stroke-opacity:1;stroke-miterlimit:10;" d="M 185.640625 16.734375 C 190.621875 21.715625 190.621875 29.784375 185.640625 34.765625 C 180.659375 39.746875 172.590625 39.746875 167.609375 34.765625 C 162.628125 29.784375 162.628125 21.715625 167.609375 16.734375 C 172.590625 11.753125 180.659375 11.753125 185.640625 16.734375 " transform="matrix(1.25,0,0,1.25,-8.75,-15)"/>
<path style=" stroke:none;fill-rule:nonzero;fill:rgb(0%,0%,0%);fill-opacity:1;" d="M 212.617188 15.683594 C 212.617188 14.6875 211.933594 14.101562 211.015625 14.101562 C 210.566406 14.101562 210.117188 14.199219 209.667969 14.433594 C 208.496094 15.078125 207.65625 16.367188 207.65625 17.617188 C 207.65625 18.59375 208.242188 19.179688 209.296875 19.179688 C 210.039062 19.179688 210.761719 18.90625 211.425781 18.261719 C 212.167969 17.519531 212.617188 16.523438 212.617188 15.683594 Z M 211.660156 15.390625 C 211.660156 16.25 211.347656 17.304688 210.839844 18.007812 C 210.390625 18.632812 209.960938 18.945312 209.472656 18.945312 C 208.945312 18.945312 208.59375 18.59375 208.59375 17.929688 C 208.59375 17.03125 208.90625 16.152344 209.433594 15.351562 C 209.882812 14.6875 210.371094 14.335938 210.859375 14.335938 C 211.347656 14.335938 211.660156 14.707031 211.660156 15.390625 Z M 211.660156 15.390625 "/>
<path style=" stroke:none;fill-rule:nonzero;fill:rgb(0%,0%,0%);fill-opacity:1;" d="M 216.523438 21.777344 L 216.425781 21.738281 C 216.171875 22.167969 216.015625 22.246094 215.703125 22.246094 L 213.945312 22.246094 L 215.175781 20.917969 C 215.839844 20.214844 216.132812 19.648438 216.132812 19.0625 C 216.132812 18.320312 215.605469 17.734375 214.746094 17.734375 C 213.828125 17.734375 213.359375 18.359375 213.203125 19.238281 L 213.359375 19.277344 C 213.652344 18.535156 213.90625 18.300781 214.453125 18.300781 C 215.097656 18.300781 215.488281 18.671875 215.488281 19.355469 C 215.488281 20 215.234375 20.566406 214.511719 21.308594 L 213.183594 22.714844 L 213.183594 22.8125 L 216.113281 22.8125 Z M 216.523438 21.777344 "/>
<path style="fill:none;stroke-width:1;stroke-linecap:round;stroke-linejoin:round;stroke:rgb(0%,0%,0%);stroke-opacity:1;stroke-miterlimit:10;" d="M 104.065625 75.53125 L 122.125 42.15625 " transform="matrix(1.25,0,0,1.25,-8.75,-15)"/>
<path style="fill:none;stroke-width:1;stroke-linecap:butt;stroke-linejoin:miter;stroke:rgb(0%,0%,0%);stroke-opacity:1;stroke-miterlimit:10;" d="M 124.028125 38.6375 L 122.125 42.15625 M 120.80625 41.440625 L 124.028125 38.6375 L 123.44375 42.871875 " transform="matrix(1.25,0,0,1.25,-8.75,-15)"/>
<path style="fill:none;stroke-width:1;stroke-linecap:round;stroke-linejoin:round;stroke:rgb(0%,0%,0%);stroke-opacity:1;stroke-miterlimit:10;" d="M 108.075 78.934375 L 161.890625 37.184375 " transform="matrix(1.25,0,0,1.25,-8.75,-15)"/>
<path style="fill:none;stroke-width:1;stroke-linecap:butt;stroke-linejoin:miter;stroke:rgb(0%,0%,0%);stroke-opacity:1;stroke-miterlimit:10;" d="M 165.05 34.73125 L 161.890625 37.184375 M 160.96875 35.996875 L 165.05 34.73125 L 162.809375 38.36875 " transform="matrix(1.25,0,0,1.25,-8.75,-15)"/>
<path style="fill:none;stroke-width:1;stroke-linecap:round;stroke-linejoin:round;stroke:rgb(0%,0%,0%);stroke-opacity:1;stroke-miterlimit:10;" d="M 109.45 81.128125 L 205.503125 33.96875 " transform="matrix(1.25,0,0,1.25,-8.75,-15)"/>
<path style="fill:none;stroke-width:1;stroke-linecap:butt;stroke-linejoin:miter;stroke:rgb(0%,0%,0%);stroke-opacity:1;stroke-miterlimit:10;" d="M 209.096875 32.20625 L 205.503125 33.96875 M 204.84375 32.625 L 209.096875 32.20625 L 206.16875 35.315625 " transform="matrix(1.25,0,0,1.25,-8.75,-15)"/>
<path style="fill:none;stroke-width:1;stroke-linecap:round;stroke-linejoin:round;stroke:rgb(0%,0%,0%);stroke-opacity:1;stroke-miterlimit:10;" d="M 146.925 74.625 L 136.778125 43.484375 " transform="matrix(1.25,0,0,1.25,-8.75,-15)"/>
<path style="fill:none;stroke-width:1;stroke-linecap:butt;stroke-linejoin:miter;stroke:rgb(0%,0%,0%);stroke-opacity:1;stroke-miterlimit:10;" d="M 135.5375 39.684375 L 136.778125 43.484375 M 135.35 43.95 L 135.5375 39.684375 L 138.203125 43.01875 " transform="matrix(1.25,0,0,1.25,-8.75,-15)"/>
<path style="fill:none;stroke-width:1;stroke-linecap:round;stroke-linejoin:round;stroke:rgb(0%,0%,0%);stroke-opacity:1;stroke-miterlimit:10;" d="M 155.8375 75 L 169.371875 42.934375 " transform="matrix(1.25,0,0,1.25,-8.75,-15)"/>
<path style="fill:none;stroke-width:1;stroke-linecap:butt;stroke-linejoin:miter;stroke:rgb(0%,0%,0%);stroke-opacity:1;stroke-miterlimit:10;" d="M 170.925 39.25 L 169.371875 42.934375 M 167.9875 42.35 L 170.925 39.25 L 170.753125 43.51875 " transform="matrix(1.25,0,0,1.25,-8.75,-15)"/>
<path style="fill:none;stroke-width:1;stroke-linecap:round;stroke-linejoin:round;stroke:rgb(0%,0%,0%);stroke-opacity:1;stroke-miterlimit:10;" d="M 160.565625 78.465625 L 208.06875 37.86875 " transform="matrix(1.25,0,0,1.25,-8.75,-15)"/>
<path style="fill:none;stroke-width:1;stroke-linecap:butt;stroke-linejoin:miter;stroke:rgb(0%,0%,0%);stroke-opacity:1;stroke-miterlimit:10;" d="M 211.1125 35.26875 L 208.06875 37.86875 M 207.096875 36.725 L 211.1125 35.26875 L 209.046875 39.00625 " transform="matrix(1.25,0,0,1.25,-8.75,-15)"/>
<path style="fill:none;stroke-width:1;stroke-linecap:round;stroke-linejoin:round;stroke:rgb(0%,0%,0%);stroke-opacity:1;stroke-miterlimit:10;" d="M 193.98125 78.559375 L 145.29375 37.734375 " transform="matrix(1.25,0,0,1.25,-8.75,-15)"/>
<path style="fill:none;stroke-width:1;stroke-linecap:butt;stroke-linejoin:miter;stroke:rgb(0%,0%,0%);stroke-opacity:1;stroke-miterlimit:10;" d="M 142.225 35.1625 L 145.29375 37.734375 M 144.328125 38.88125 L 142.225 35.1625 L 146.253125 36.58125 " transform="matrix(1.25,0,0,1.25,-8.75,-15)"/>
<path style="fill:none;stroke-width:1;stroke-linecap:round;stroke-linejoin:round;stroke:rgb(0%,0%,0%);stroke-opacity:1;stroke-miterlimit:10;" d="M 198.565625 75.096875 L 184.203125 42.79375 " transform="matrix(1.25,0,0,1.25,-8.75,-15)"/>
<path style="fill:none;stroke-width:1;stroke-linecap:butt;stroke-linejoin:miter;stroke:rgb(0%,0%,0%);stroke-opacity:1;stroke-miterlimit:10;" d="M 182.578125 39.140625 L 184.203125 42.79375 M 182.83125 43.403125 L 182.578125 39.140625 L 185.575 42.184375 " transform="matrix(1.25,0,0,1.25,-8.75,-15)"/>
<path style="fill:none;stroke-width:1;stroke-linecap:round;stroke-linejoin:round;stroke:rgb(0%,0%,0%);stroke-opacity:1;stroke-miterlimit:10;" d="M 207.45 74.546875 L 216.8375 43.6 " transform="matrix(1.25,0,0,1.25,-8.75,-15)"/>
<path style="fill:none;stroke-width:1;stroke-linecap:butt;stroke-linejoin:miter;stroke:rgb(0%,0%,0%);stroke-opacity:1;stroke-miterlimit:10;" d="M 217.996875 39.775 L 216.8375 43.6 M 215.403125 43.1625 L 217.996875 39.775 L 218.275 44.034375 " transform="matrix(1.25,0,0,1.25,-8.75,-15)"/>
<path style="fill:none;stroke-width:1;stroke-linecap:round;stroke-linejoin:round;stroke:rgb(0%,0%,0%);stroke-opacity:1;stroke-miterlimit:10;" d="M 245.125 80.484375 L 147.81875 33.815625 " transform="matrix(1.25,0,0,1.25,-8.75,-15)"/>
<path style="fill:none;stroke-width:1;stroke-linecap:butt;stroke-linejoin:miter;stroke:rgb(0%,0%,0%);stroke-opacity:1;stroke-miterlimit:10;" d="M 144.2125 32.0875 L 147.81875 33.815625 M 147.171875 35.16875 L 144.2125 32.0875 L 148.46875 32.465625 " transform="matrix(1.25,0,0,1.25,-8.75,-15)"/>
<path style="fill:none;stroke-width:1;stroke-linecap:round;stroke-linejoin:round;stroke:rgb(0%,0%,0%);stroke-opacity:1;stroke-miterlimit:10;" d="M 246.4375 78.328125 L 191.525 36.971875 " transform="matrix(1.25,0,0,1.25,-8.75,-15)"/>
<path style="fill:none;stroke-width:1;stroke-linecap:butt;stroke-linejoin:miter;stroke:rgb(0%,0%,0%);stroke-opacity:1;stroke-miterlimit:10;" d="M 188.328125 34.5625 L 191.525 36.971875 M 190.621875 38.16875 L 188.328125 34.5625 L 192.425 35.775 " transform="matrix(1.25,0,0,1.25,-8.75,-15)"/>
<path style="fill:none;stroke-width:1;stroke-linecap:round;stroke-linejoin:round;stroke:rgb(0%,0%,0%);stroke-opacity:1;stroke-miterlimit:10;" d="M 250.30625 74.921875 L 231.49375 41.953125 " transform="matrix(1.25,0,0,1.25,-8.75,-15)"/>
<path style="fill:none;stroke-width:1;stroke-linecap:butt;stroke-linejoin:miter;stroke:rgb(0%,0%,0%);stroke-opacity:1;stroke-miterlimit:10;" d="M 229.5125 38.475 L 231.49375 41.953125 M 230.190625 42.69375 L 229.5125 38.475 L 232.796875 41.20625 " transform="matrix(1.25,0,0,1.25,-8.75,-15)"/>
</g>
</svg>
